<?xml version="1.0" encoding="UTF-8" standalone="no"?>
<!-- Created with Inkscape (http://www.inkscape.org/) -->

<svg
   version="1.1"
   id="svg1"
   width="1024"
   height="1024"
   viewBox="0 0 1024 1024"
   sodipodi:docname="logo_magalface.svg"
   inkscape:version="1.4.2 (f4327f4, 2025-05-13)"
   xmlns:inkscape="http://www.inkscape.org/namespaces/inkscape"
   xmlns:sodipodi="http://sodipodi.sourceforge.net/DTD/sodipodi-0.dtd"
   xmlns="http://www.w3.org/2000/svg"
   xmlns:svg="http://www.w3.org/2000/svg">
  <defs
     id="defs1" />
  <sodipodi:namedview
     id="namedview1"
     pagecolor="#ffffff"
     bordercolor="#000000"
     borderopacity="0.25"
     inkscape:showpageshadow="2"
     inkscape:pageopacity="0.0"
     inkscape:pagecheckerboard="0"
     inkscape:deskcolor="#d1d1d1"
     inkscape:zoom="0.75488281"
     inkscape:cx="735.87581"
     inkscape:cy="596.78137"
     inkscape:window-width="1920"
     inkscape:window-height="991"
     inkscape:window-x="-9"
     inkscape:window-y="-9"
     inkscape:window-maximized="1"
     inkscape:current-layer="g1" />
  <g
     inkscape:groupmode="layer"
     inkscape:label="Image"
     id="g1">
    <g
       id="g8">
      <path
         style="fill:#87ba4e"
         d="m 587.25435,729.57567 c -0.73562,-0.46628 -1.18562,-1.86837 -1,-3.11577 0.27105,-1.82149 3.49812,-3.86637 16.39173,-10.38691 17.21717,-8.70703 34.23931,-19.57327 46.6528,-29.78121 5.89445,-4.84718 8.52134,-7.8664 11.16946,-12.83771 6.03253,-11.32479 11.30406,-32.39526 13.14001,-52.52097 l 0.64048,-7.02098 -4.24461,-2.77902 -4.2446,-2.77903 -8.08389,3.47887 c -7.51101,3.23234 -8.12409,3.72096 -8.65126,6.89492 -0.90228,5.4325 -4.1155,10.05249 -8.50335,12.22621 l -4.03717,2 -1.15559,9.61035 c -4.50085,37.43076 -35.14455,68.54871 -83.07666,84.36238 l -8.34015,2.75156 -13.15985,-1.19522 c -30.61069,-2.78016 -51.50835,-8.41641 -74.64145,-20.13134 -21.75697,-11.01803 -41.00627,-26.4477 -41.02214,-32.88212 -0.006,-2.30825 -3.60441,-7.71275 -6.32094,-9.49268 -1.33108,-0.87217 -7.66012,-2.46786 -14.06453,-3.546 -13.57692,-2.28558 -19.81875,-5.0654 -25.02118,-11.14326 -4.80898,-5.61822 -6.58877,-12.0333 -6.59335,-23.76517 -0.006,-14.23047 -2.28893,-17.23195 -15.98139,-21.00747 -10.97009,-3.02486 -15.8636,-6.41409 -19.48508,-13.49533 -2.50837,-4.90472 -2.99865,-7.03272 -2.98748,-12.96669 0.007,-3.90445 0.38458,-9.12765 0.83829,-11.60711 l 0.82493,-4.5081 -4.10142,-2.30512 c -2.25578,-1.26783 -4.55203,-3.1471 -5.10277,-4.17616 -1.57443,-2.94186 -1.16636,-7.23345 0.99866,-10.50252 2.77085,-4.18385 2.54498,-5.6842 -1.92316,-12.77451 -7.94915,-12.61418 -10.40502,-23.92251 -8.1276,-37.42455 2.07433,-12.29806 6.62036,-19.90248 17.31603,-28.9656 2.72782,-2.31145 3.73473,-3.94698 3.73473,-6.06634 0,-5.13999 -2.12478,-14.61455 -4.59486,-20.48886 -2.84079,-6.75593 -3.0256,-10.71187 -0.70447,-15.0798 1.28648,-2.42091 1.73443,-6.0011 1.83931,-14.70034 0.1899,-15.75128 2.73645,-21.08539 13.39879,-28.06562 2.27685,-1.49057 2.33497,-1.79016 1.21234,-6.24854 -0.94678,-3.75999 -0.91131,-5.32372 0.17995,-7.93437 1.64509,-3.93557 3.26757,-5.35774 10.55454,-9.25147 l 5.6144,-3 0.5,-10.16489 c 0.45628,-9.27618 0.76309,-10.53915 3.50915,-14.44536 4.47317,-6.36301 10.90113,-9.30326 21.30723,-9.74629 9.42997,-0.40146 8.16772,0.75779 12.67798,-11.64346 1.03508,-2.84603 3.63297,-6.83087 6.03047,-9.25 3.81517,-3.84958 4.67402,-4.25 9.11574,-4.25 4.02165,0 5.58891,0.56478 8.7128,3.13975 l 3.80905,3.13975 4.16879,-4.51682 c 2.52235,-2.73293 5.42331,-4.78784 7.34526,-5.20305 1.74705,-0.37743 3.89265,-1.77927 4.76798,-3.1152 2.17532,-3.31995 9.80738,-7.00678 17.58887,-8.49667 9.16166,-1.75415 11.37033,-3.16199 15.04976,-9.59297 8.56234,-14.9654 21.62603,-19.92862 36.41692,-13.83568 3.3,1.3594 6.64206,2.47372 7.42681,2.47626 0.78475,0.003 3.87699,-1.68287 6.87165,-3.74537 4.67217,-3.21784 6.22465,-3.75 10.94009,-3.75 5.22416,0 5.67582,0.20967 9.15562,4.25 2.0132,2.3375 4.15391,4.25 4.75714,4.25 0.60323,0 3.20647,-1.17912 5.78498,-2.62028 2.5785,-1.44115 6.34989,-2.99364 8.38085,-3.44996 8.93957,-2.00859 17.39132,3.60911 18.71557,12.43983 0.66989,4.46716 2.97047,6.67353 5.39565,5.17469 0.52044,-0.32165 4.07559,-0.64261 7.90033,-0.71324 8.79326,-0.16238 13.49006,2.37466 16.34514,8.82904 l 1.91976,4.33992 5.7717,0 c 7.60772,0 14.77854,2.2215 21.01224,6.50954 2.79084,1.91975 5.72343,3.49046 6.51687,3.49046 0.79345,0 4.7291,-1.575 8.7459,-3.5 5.88792,-2.8217 8.47153,-3.49574 13.33148,-3.47803 11.80776,0.043 17.89105,5.01538 25.05323,20.47803 2.54755,5.5 5.34135,10.7875 6.20844,11.75 2.49364,2.76804 6.20791,2.05267 14.15265,-2.7258 11.88068,-7.14579 20.91312,-7.03359 29.22654,0.36306 7.50454,6.67696 8.13808,16.0655 1.96453,29.11274 -5.24905,11.09341 -4.22131,13.36952 7.89806,17.49158 13.83819,4.70667 20.22753,10.09978 24.04507,20.29594 2.26738,6.05588 2.49675,9.29544 0.7797,11.01248 -0.89966,0.89966 -13.22617,1.20331 -49.25,1.21323 l -48.05,0.0132 7.22059,4.00448 7.2206,4.00448 3.76459,-2.0177 c 4.80939,-2.57768 11.2725,-2.57959 16.31943,-0.005 4.50717,2.29939 6.63565,5.12394 8.42312,11.17773 l 1.25294,4.24343 9.72432,2.27063 9.72432,2.27063 2.41342,-2.86819 c 6.72852,-7.99639 19.06502,-8.09122 25.70706,-0.1976 13.66834,16.2439 -8.9186,37.80909 -24.2876,23.18892 -2.10685,-2.0042 -4.12746,-4.98374 -4.49024,-6.62121 -0.36278,-1.63746 -0.80385,-3.46401 -0.98015,-4.059 -0.1763,-0.59499 -4.85963,-2.30157 -10.40741,-3.7924 l -10.08687,-2.71059 -3.49432,3.49431 c -7.26854,7.26855 -19.42336,5.9607 -25.96201,-2.7935 -1.50121,-2.00987 -2.10549,-4.44011 -2.22251,-8.93821 l -0.16071,-6.17782 -7.33929,-3.74081 c -18.21518,-9.28422 -34.42489,-12.09249 -57.0207,-9.87861 -31.6568,3.10164 -55.24242,16.91238 -72.06829,42.20011 -11.23741,16.88878 -15.73211,31.79511 -15.74329,52.21147 -0.008,14.40861 1.61874,24.01157 5.99031,35.36437 8.97613,23.31065 30.44772,44.35019 54.49397,53.39742 16.39145,6.16718 20.69697,8.30979 25.65393,12.76652 4.51325,4.0578 5.54541,4.53946 9.24074,4.31222 5.31316,-0.32673 8.50497,0.91208 12.40919,4.8163 l 3.12322,3.12323 6.79082,-2.8767 6.79082,-2.87669 v -5.93896 c 0,-3.65065 0.71895,-7.53442 1.86594,-10.07974 l 1.86595,-4.14078 -4.41844,-6.15772 -4.41845,-6.15772 -6.62598,-0.17195 c -7.37516,-0.1914 -10.58898,-1.88735 -14.51902,-7.66179 -1.684,-2.4743 -2.25,-4.74087 -2.25,-9.01017 0,-9.99246 6.22932,-15.99528 16.60211,-15.99844 5.60039,-0.002 10.15139,2.38885 13.72023,7.20697 2.88288,3.89206 3.34185,12.27343 0.92528,16.89674 l -1.88445,3.60527 4.9093,6.14097 c 4.42366,5.53351 5.17234,6.06716 7.56841,5.39474 1.46251,-0.41044 4.90912,-0.66753 7.65912,-0.57132 l 5,0.17492 15.08092,-20.67492 15.08093,-20.67493 38.01929,-0.26174 c 37.21941,-0.25623 38.07504,-0.21788 40.66907,1.82258 1.68837,1.32808 2.64943,3.05576 2.64882,4.76175 -0.001,3.82076 -12.04521,39.03755 -17.5512,51.32063 -21.22312,47.34579 -47.35971,79.77467 -81.22333,100.77755 -26.89142,16.67859 -60.02489,29.04135 -96.52527,36.01552 -11.98992,2.29093 -13.59881,2.41367 -15.53673,1.18531 z M 566.644,712.02608 c 14.49371,-6.69513 14.54876,-5.69795 -0.74118,-13.42469 -14.80131,-7.47981 -27.99937,-15.97902 -30.32515,-19.52861 -2.11127,-3.2222 -8.21156,-18.49582 -11.23062,-28.11871 -1.98115,-6.31466 -2.64108,-11.05466 -3.13256,-22.5 l -0.62264,-14.5 h -3 c -2.97912,0 -3.00501,0.0487 -3.71923,7 -1.19692,11.64919 1.42192,28.02259 6.7433,42.16019 1.31246,3.4869 2.05634,6.33981 1.65306,6.33981 -1.77132,0 -25.43952,-22.59676 -27.09628,-25.86966 -2.61168,-5.15929 -9.66611,-27.28153 -13.58427,-42.59933 -4.14174,-16.19192 -5.49658,-25.78114 -5.49658,-38.90336 0,-10.56693 -0.68944,-12.62765 -4.22475,-12.62765 -3.78253,0 -4.6841,8.42282 -2.72871,25.49272 1.65397,14.43858 7.12531,38.14179 12.46634,54.00728 0.63793,1.89498 0.5765,1.88802 -1.1698,-0.13261 -19.37571,-22.41939 -50.8962,-64.06605 -51.89192,-68.56256 -0.40251,-1.81766 -1.47089,-10.72983 -2.37419,-19.80483 l -1.64237,-16.5 -2.68242,-0.31305 c -3.60535,-0.42077 -4.01752,1.64379 -3.00723,15.06305 0.44514,5.9125 0.71419,10.75 0.5979,10.75 -1.13299,0 -17.63476,-26.17694 -24.42775,-38.75 -2.66822,-4.93858 -3.87037,-6.25 -5.72926,-6.25 -1.29388,0 -2.20251,0.33837 -2.01918,0.75192 0.18334,0.41355 4.23975,8.62605 9.01426,18.25 11.37308,22.92464 24.75667,43.2845 40.05863,60.93941 3.66384,4.22722 4.6163,7.95667 2.23205,8.73981 -0.98697,0.32419 -5.88388,-2.55086 -15.9505,-9.36478 -4.74379,-3.21098 -6.89278,-3.39612 -7.93371,-0.68351 -0.55491,1.44607 1.09314,3.42583 6.8429,8.2202 2.25748,1.88238 3.25931,2.15378 5.00841,1.35684 1.80369,-0.82182 3.57605,-0.18372 10.12388,3.64487 11.9028,6.95969 23.96176,19.71205 47.89145,50.64524 32.22397,41.65497 42.23416,52.49266 59.54597,64.46836 8.91172,6.16482 10.42554,6.20534 22.55215,0.60365 z m 89.44785,-7.24875 c 23.7687,-9.40868 45.46987,-22.13977 61.5,-36.07927 21.58442,-18.76941 41.64108,-48.0263 56.03845,-81.74399 4.36396,-10.22011 15.46155,-42.13721 15.46155,-44.46803 0,-0.66759 -5.82592,-1.03197 -16.5,-1.03197 -15.0623,0 -16.49665,0.15249 -16.46148,1.75 0.0212,0.9625 1.48368,2.65 3.25,3.75 1.78319,1.11052 4.26186,4.11778 5.57325,6.76179 3.43852,6.93272 2.41827,12.72133 -3.23933,18.37893 -11.69933,11.69933 -30.63534,2.26788 -28.18975,-14.04047 0.84863,-5.65905 6.52953,-12.24269 11.40546,-13.21788 1.73902,-0.3478 3.16185,-1.25112 3.16185,-2.00737 0,-1.09817 -2.69455,-1.375 -13.38401,-1.375 h -13.38401 l -14.07794,19.21331 c -12.14093,16.56972 -13.89338,19.42474 -12.73658,20.75 4.77472,5.47004 6.35035,15.71744 3.31825,21.58088 -2.33062,4.50691 -6.41936,8.16958 -11.12689,9.9674 l -4.21756,1.6107 -1.19768,11.68886 c -1.26321,12.3283 -4.00843,26.66586 -6.54616,34.18885 l -1.51798,4.5 10.00678,-10.40371 c 9.60746,-9.98857 25.77589,-28.8167 34.8833,-40.62159 l 4.33017,-5.6127 -1.8177,-3.07713 c -2.29141,-3.87904 -2.39013,-12.22472 -0.19483,-16.46997 5.97599,-11.5563 23.19066,-11.61678 29.66109,-0.10422 3.03623,5.40224 2.47623,13.1674 -1.30734,18.12791 -3.38225,4.43436 -10.15529,7.16259 -15.61448,6.28963 l -3.95329,-0.63216 -7.01711,9.25197 c -19.02566,25.08511 -46.09137,53.27107 -68.60603,71.44564 -4.4,3.55183 -13.4,10.0753 -20,14.49661 -6.6,4.42131 -12.1586,8.18331 -12.35245,8.36001 -1.19411,1.08849 25.30422,-7.44743 34.85245,-11.22703 z m -167.5,7.67674 c -0.33992,-0.55 -1.05428,-1 -1.58747,-1 -2.34264,0 -16.58459,-7.57208 -26.06862,-13.86003 -11.33192,-7.5131 -14.09979,-10.11824 -15.55449,-14.63997 -0.86277,-2.68182 -1.40989,-3.00861 -5.15854,-3.08125 -2.30637,-0.0447 -4.54544,-0.49469 -4.97571,-1 -0.43027,-0.50531 -1.54654,-3.45021 -2.48059,-6.54423 -2.70324,-8.95434 -7.75425,-12.94951 -19.47124,-15.40102 -7.33536,-1.53476 -9.23476,-1.29903 -3.85065,0.47789 4.93094,1.62736 11.33488,8.92222 12.74351,14.51641 0.81745,3.24638 2.05787,5.20276 4.27755,6.74652 1.71944,1.19584 5.30968,4.10937 7.97832,6.47451 8.87452,7.86522 29.2417,19.10795 45.14793,24.92177 10.53042,3.84893 9.77869,3.64935 9,2.3894 z m -3.33168,-51.28846 c -2.79141,-3.50801 -5.72888,-6.3782 -6.52772,-6.3782 -3.22643,0 -19.46792,-10.43194 -31.6901,-20.35461 -3.06643,-2.48951 -5.9505,-1.73781 -5.9505,1.55094 0,2.52252 5.59097,7.68445 17.09103,15.7795 6.46574,4.55132 30.90415,17.02898 31.73169,16.20144 0.23149,-0.23148 -1.863,-3.29107 -4.6544,-6.79907 z m -91.21829,-9.46154 c -7.71462,-3.9225 -10.19072,-9.06689 -10.95003,-22.75 -0.45449,-8.1901 -1.05779,-11.13728 -3.08705,-15.0805 -3.1571,-6.13485 -8.92418,-10.59461 -17.30809,-13.3846 -15.21471,-5.06313 -19.72143,-11.95553 -17.03526,-26.05308 1.64568,-8.63683 0.91158,-11.14337 -4.72342,-16.1278 l -4.12185,-3.64598 1.85832,-5.16782 1.85832,-5.16783 -5.74038,-11.18619 c -6.8732,-13.39371 -8.31016,-19.75022 -6.74509,-29.83736 1.4028,-9.04125 4.76808,-15.55744 10.74716,-20.80971 5.83988,-5.12998 7.21588,-7.44306 7.2619,-12.20734 0.0432,-4.471 -0.78021,-6.83179 -2.38282,-6.83179 -0.66235,0 -5.96523,4.28997 -11.78417,9.53326 -11.458,10.32449 -13.87307,14.14819 -15.94288,25.24183 -2.06188,11.05112 -0.0831,19.99098 7.13246,32.22262 5.57424,9.44935 6.07147,12.50297 3.01285,18.50229 -1.1,2.15759 -2,4.04636 -2,4.19726 0,0.1509 1.75891,1.43836 3.90869,2.86102 4.95039,3.27601 6.6151,7.09789 5.53641,12.7106 -0.44724,2.32712 -0.83513,7.47097 -0.86197,11.43079 -0.0391,5.7704 0.36308,7.75557 2.02598,10 3.18164,4.29427 7.63152,6.8659 14.34629,8.29087 9.03656,1.91769 15.8872,6.41709 18.99067,12.47278 2.13015,4.15648 2.64012,6.83874 3.13712,16.5 0.61993,12.05096 1.00742,13.75486 4.16375,18.30932 3.15678,4.55512 12.33221,8.38232 20.68237,8.62691 3.38168,0.0991 3.35419,0.0623 -1.97928,-2.64955 z M 638.16877,622.531 c 1.995,-1.995 2.92308,-3.92443 2.92308,-6.07693 0,-2.15249 -0.92808,-4.08192 -2.92308,-6.07692 -3.65612,-3.65612 -7.89139,-3.8469 -11.74843,-0.52921 -2.22471,1.91362 -2.78304,3.23892 -2.78304,6.60613 0,8.24798 8.71563,11.89277 14.53147,6.07693 z m 48.92308,-19.02067 c 3.64721,-2.54908 5.27132,-8.09219 3.72418,-12.71074 -1.61686,-4.82671 -5.50565,-7.61824 -10.61272,-7.61824 -7.93837,0 -13.16701,6.63902 -11.14438,14.15049 2.19281,8.14348 10.93552,11.13893 18.03292,6.17849 z m 54.75,-1.61095 c 5.86727,-6.6674 -0.83839,-16.22139 -9.40172,-13.39523 -3.9134,1.29153 -5.34828,3.48964 -5.34828,8.19305 0,8.10592 9.30635,11.38818 14.75,5.20218 z m -191.79454,-7.32956 c 2.3481,-0.65494 2.25428,-0.80278 -2.14578,-3.38139 -5.21476,-3.05605 -17.68692,-15.9676 -25.0026,-25.88343 -5.01879,-6.80257 -6.60051,-7.81889 -15.30708,-9.83543 -7.76558,-1.7986 -9.5,-4.0101 -9.5,-12.11308 0,-9.37153 -2.08251,-11.72098 -13.73557,-15.49628 -10.46585,-3.39066 -14.42488,-6.72293 -20.08605,-16.90614 -3.56912,-6.42006 -4.45436,-7.28996 -10.68528,-10.5 l -6.79377,-3.5 -12.9862,0.28502 c -19.07996,0.41877 -21.77797,-0.76479 -31.88542,-13.98746 -2.47967,-3.24393 -3.17639,-3.54276 -9.66608,-4.14592 -3.84659,-0.3575 -7.7232,-0.9299 -8.6147,-1.272 -2.428,-0.93171 -4.54693,-5.7606 -4.54693,-10.36209 0,-5.67582 -2.36234,-10.82461 -5.51673,-12.02391 -1.43741,-0.5465 -4.60918,-0.99364 -7.04837,-0.99364 -2.4392,0 -4.4349,-0.24292 -4.4349,-0.53983 0,-0.29691 0.9,-2.30399 2,-4.46017 2.81269,-5.51333 2.54275,-7.43502 -2,-14.23785 -3.6093,-5.40497 -4,-6.60528 -4,-12.28873 0,-5.13955 0.59808,-7.46491 3.25,-12.63604 2.73991,-5.34272 4.00997,-6.71413 8.09211,-8.73786 4.42112,-2.19179 5.27675,-2.30016 9.84137,-1.24652 7.02242,1.62097 13.27241,6.41413 16.30877,12.50731 1.37926,2.76781 2.50775,5.84403 2.50775,6.83604 0,0.99201 0.45,1.80365 1,1.80365 1.40568,0 1.3117,-0.55722 -1.5363,-9.109 -4.5981,-13.80683 -12.28777,-19.891 -25.13988,-19.891 -10.13054,0 -15.36688,3.7172 -21.29748,15.11877 -3.2144,6.17968 -4.63546,13.82081 -3.5984,19.34883 0.40581,2.16318 2.42436,5.55124 5.10669,8.5714 6.74939,7.59945 6.85325,10.31744 0.73551,19.24881 -3.91176,5.71083 -1.31533,7.10246 9.7975,5.25123 6.72753,-1.1207 7.93236,0.48595 7.93236,10.57785 0,7.13291 0.2589,8.23293 2.45454,10.42857 2.16757,2.16757 3.32716,2.45454 9.91821,2.45454 4.10502,0 8.19702,0.28142 9.09333,0.62536 0.89631,0.34395 3.41063,3.24797 5.58739,6.45339 8.29585,12.21619 17.5631,15.24492 34.94653,11.42125 9.16064,-2.01497 13.03961,-1.83964 18.09271,0.81783 3.82736,2.01284 4.99942,3.49175 8.90729,11.23925 5.15363,10.21728 8.07894,12.73015 16.81167,14.44142 3.12858,0.61308 6.88138,1.57541 8.33955,2.1385 6.27246,2.42222 9.03271,8.94245 6.95192,16.42176 -1.52561,5.48374 0.69388,8.32377 8.5506,10.94124 8.78966,2.92829 10.84903,4.68553 15.53938,13.25955 9.17213,16.76677 23.0262,26.35079 33.76234,23.3562 z M 756.16877,566.531 c 3.26024,-3.26024 3.63004,-5.80913 1.45346,-10.01817 -4.12529,-7.97744 -16.53038,-4.24886 -16.53038,4.96851 0,3.29889 5.27605,7.97273 9,7.97273 2.15249,0 4.08192,-0.92808 6.07692,-2.92307 z M 654.6373,558.99953 c 7.99453,-7.99453 -3.99623,-19.97189 -12.29545,-12.28171 -5.38521,4.99001 -1.25159,14.73625 6.25,14.73625 2.47923,0 4.35078,-0.75987 6.04545,-2.45454 z M 455.70007,460.45407 c 1.52685,-3.38212 5.11785,-8.19547 9.32562,-12.5 3.76347,-3.85 7.31978,-7.93963 7.90293,-9.08807 0.58315,-1.14844 1.51799,-5.73841 2.07742,-10.19994 1.24154,-9.90153 2.94818,-14.21472 6.71236,-16.96413 l 2.87345,-2.09881 -2.75,-1.04977 c -3.25756,-1.24352 -7.17614,-0.0541 -8.57491,2.60286 -0.52059,0.98882 -1.26697,5.17286 -1.65864,9.29786 -0.96334,10.14568 -3.0693,14.46631 -11.27581,23.13358 -8.04821,8.50008 -10.83009,13.43935 -12.79769,22.72244 -1.92964,9.10398 -1.82336,10.66861 0.80428,11.8411 2.14664,0.95786 2.30612,0.70729 3.56263,-5.59718 0.72347,-3.62997 2.43273,-9.07494 3.79836,-12.09994 z m -114.60822,-6.87863 c 0,-0.99454 -0.92573,-4.46621 -2.05718,-7.71481 -1.47154,-4.22509 -1.90645,-7.32995 -1.52771,-10.90656 0.2912,-2.75 0.91426,-10.625 1.38456,-17.5 0.9737,-14.23375 2.28685,-17.75341 7.97882,-21.38579 6.74744,-4.30593 8.51455,-6.9202 7.74733,-11.46138 -0.94711,-5.60586 0.39399,-7.3937 7.95745,-10.60822 8.26405,-3.51227 9.51673,-5.65262 9.51673,-16.26055 0,-9.85001 1.90634,-13.89099 8.03588,-17.03406 3.23598,-1.65932 6.11151,-2.25 10.9535,-2.25 4.34075,0 7.32327,-0.53068 8.8015,-1.56608 2.56285,-1.79509 5.63906,-7.42386 6.6718,-12.20787 1.09502,-5.07257 5.1107,-9.23213 8.87621,-9.19424 1.73861,0.0175 4.03461,0.69249 5.10224,1.5 3.95118,2.98852 7.87851,1.88339 12.97722,-3.65173 4.24332,-4.60651 5.04611,-5.06639 8.00579,-4.5861 2.21829,0.35998 4.18273,-0.0521 6.0323,-1.2654 l 2.74276,-1.79922 -6.64565,-2.21153 c -7.80229,-2.59644 -10.42395,-2.2001 -12.87319,1.94613 -2.19547,3.71663 -7.07953,6.40366 -10.211,5.61771 -1.27337,-0.31959 -3.65236,-1.70621 -5.28665,-3.08137 -6.18416,-5.20363 -10.77531,-2.23316 -14.68271,9.4997 -3.64141,10.93415 -5.30846,12.22681 -16.76494,12.99981 -10.17383,0.68645 -12.27373,1.47478 -16.1272,6.05438 -2.40086,2.85326 -2.60786,3.83655 -2.60786,12.38768 0,10.76286 -1.03539,12.78456 -8.82314,17.22804 -8.17896,4.66669 -8.40971,5.01582 -7.64872,11.57257 0.80499,6.9359 -0.32059,9.14261 -7.0115,13.74608 -6.4524,4.43936 -7.51932,7.10047 -7.50216,18.71178 0.0109,7.37706 -0.5231,11.45158 -2.16013,16.48182 l -2.17462,6.68216 2.59176,5.97611 c 1.42547,3.28686 3.12832,8.70336 3.78411,12.03667 1.07587,5.46853 1.37561,5.96249 3.06837,5.05656 1.03181,-0.55221 1.87603,-1.81774 1.87603,-2.81229 z m 69.91959,-29.0425 c 2.8279,-10.90957 7.96659,-24.14448 13.55166,-34.90282 2.45055,-4.72042 4.29565,-8.74247 4.10023,-8.93789 -0.88809,-0.88809 -7.57897,2.84364 -9.00744,5.02376 -2.51603,3.83994 -6.37714,14.29619 -9.68876,26.23808 -2.50064,9.01745 -3.11698,13.34303 -3.41968,24 l -0.36924,13 1.32581,-8.0024 c 0.72919,-4.40132 2.30753,-11.78975 3.50742,-16.41873 z m 351.00889,15.45812 c 3.14754,-1.62766 4.07152,-3.33807 4.07152,-7.53699 0,-1.56003 -0.27954,-3.56487 -0.62118,-4.45519 -0.7586,-1.97686 -5.50828,-4.54481 -8.40609,-4.54481 -3.29889,0 -7.97273,5.27606 -7.97273,9 0,2.1525 0.92808,4.08193 2.92307,6.07693 3.2576,3.2576 5.80929,3.62996 10.00541,1.46006 z m -214.09917,-7.09717 c 1.76788,-2.50811 2.94897,-4.98954 2.62466,-5.51429 -1.1328,-1.8329 -8.06345,-4.75197 -13.80046,-5.81251 -5.9863,-1.10663 -9.36699,-2.99155 -13.65351,-7.61257 -4.59168,-4.94998 -14.56549,-8.47233 -28.5,-10.06505 l -6,-0.6858 2.12644,2.3752 c 1.16954,1.30636 3.31269,4.2877 4.76254,6.6252 l 2.63611,4.25 h 8.01957 c 4.54443,0 9.4464,0.59617 11.31225,1.37577 4.54668,1.89973 9.29324,7.99745 10.65991,13.69438 l 1.14401,4.76875 5.28348,-0.5453 c 3.05546,-0.31535 6.07885,-0.0834 7.16959,0.55014 2.71751,1.57833 2.69484,1.59075 6.21541,-3.40392 z m 162.42345,-7.424 c 3.09064,-2.4311 4.09109,-5.98122 2.70956,-9.61492 -1.42292,-3.74254 -3.80159,-5.33141 -8.03801,-5.36909 -4.70309,-0.0418 -8.32431,3.64198 -8.32431,8.46819 0,7.21768 7.9419,11.00798 13.65276,6.51582 z m -180.2186,-27.58137 c 8.51482,-8.67016 18.1004,-16.14888 24.38731,-19.02712 6.00737,-2.75027 7.89982,-2.81823 23.25788,-0.8352 l 5.17936,0.66876 4.49399,-7.01109 c 5.48696,-8.56021 9.92167,-12.08613 17.42105,-13.85098 9.43591,-2.22058 13.63962,-1.83278 17.57347,1.62118 4.19193,3.68058 6.57564,3.77981 9.72846,0.40499 11.47993,-12.28825 27.40296,-3.219 42.21476,24.04418 3.37369,6.20975 3.7609,6.61699 3.24601,3.41395 -1.49466,-9.2979 -10.83307,-26.71014 -18.77401,-35.00566 -8.46453,-8.84251 -17.82381,-10.59336 -26.58263,-4.97284 -2.6702,1.71346 -5.22304,3.11538 -5.67297,3.11538 -0.44993,0 -2.29301,-1.125 -4.09573,-2.5 -3.85843,-2.94296 -4.521,-3.01165 -8.61741,-0.89331 -1.70884,0.88367 -5.73851,1.77316 -8.95483,1.97664 -8.57204,0.5423 -13.45634,3.65757 -17.11952,10.91904 -3.16418,6.2723 -4.88398,6.99763 -16.59174,6.99763 -9.99757,0 -11.05719,0.19973 -17.27384,3.25584 -3.78367,1.86006 -9.74925,6.14706 -13.9155,10 -8.87003,8.20298 -20.09716,21.17807 -19.35879,22.37278 1.26294,2.04347 4.33633,0.51756 9.45468,-4.69417 z m -8.8629,-9.08943 c 2.56616,-2.32235 2.30848,-3.11773 -1.52964,-4.72139 -4.86167,-2.03134 -7.33167,-5.14875 -8.70241,-10.98339 -2.67775,-11.39805 -5.96679,-14.20628 -15.28663,-13.05196 -3.38392,0.41912 -7.27758,0.65766 -8.65258,0.53009 -8.62978,-0.80063 -14.52663,-6.18086 -17.90667,-16.33789 -1.18898,-3.57288 -3.30977,-7.57262 -4.71287,-8.88831 -2.30473,-2.16115 -3.53271,-2.41305 -12.71578,-2.60848 -5.59057,-0.11897 -12.18968,-0.34397 -14.66468,-0.5 l -4.5,-0.28369 0.0539,4.60682 c 0.0402,3.43893 0.88421,5.90078 3.32921,9.71099 l 3.27534,5.10418 -6.07921,9.69495 c -3.34357,5.33222 -6.07921,10.02692 -6.07921,10.43267 0,0.40576 1.83057,0.27308 4.06794,-0.29482 2.61852,-0.66465 4.63241,-1.96291 5.65213,-3.64367 0.8713,-1.43611 3.09072,-4.96669 4.93205,-7.84573 4.01174,-6.27261 4.12165,-8.0889 0.82947,-13.70658 l -2.51841,-4.29734 7.96452,-0.69476 c 11.22528,-0.97919 13.70273,0.54301 16.56656,10.17884 1.81821,6.11765 6.24595,11.57111 11.62122,14.31337 2.96798,1.51415 5.87343,1.94108 13.20982,1.94108 11.44078,0 13.52282,1.24626 17.72353,10.60883 2.03775,4.54179 3.98725,7.12916 7.03507,9.337 4.92932,3.57077 4.73103,3.53163 7.08736,1.39919 z m 244.94064,-2.09502 c -2.99146,-5.81621 -6.85384,-8.77167 -16.6119,-12.71127 -4.95,-1.99845 -9.5625,-3.88536 -10.25,-4.19313 -1.87115,-0.83764 -1.50242,1.72812 0.78833,5.48546 1.47212,2.41461 4.07465,4.27534 9.45966,6.76337 4.08584,1.88777 8.23278,4.53716 9.21541,5.88752 1.34087,1.84267 2.72723,2.46305 5.55692,2.48663 l 3.77032,0.0314 z M 581.30601,356.13115 c 0.87153,-1.8276 3.41539,-5.43824 5.65304,-8.02364 2.23764,-2.58539 4.57209,-6.57112 5.18766,-8.85717 1.5002,-5.57133 5.87729,-9.51359 11.49893,-10.3566 3.66841,-0.55011 5.42709,-0.19446 9.92822,2.00773 3.00856,1.47195 6.26838,3.68998 7.24405,4.92896 2.10453,2.67249 7.27797,6.22515 7.26455,4.98865 -0.005,-0.47575 -1.36794,-3.23394 -3.02839,-6.1293 -10.89116,-18.9911 -33.89611,-14.58473 -37.47117,7.17724 -0.46589,2.83596 -1.86049,5.09639 -5.06694,8.2127 -2.93999,2.85734 -4.42411,5.15091 -4.42411,6.83705 0,3.49916 1.32538,3.17521 3.21416,-0.78562 z m -52.85111,-4.92708 c -3.2548,-5.19636 -3.99188,-5.71531 -8.14517,-5.73468 -6.15865,-0.0287 -16.18103,6.15336 -13.08144,8.06901 0.83806,0.51795 2.08063,0.12317 3.3481,-1.06374 5.06704,-4.74499 12.80173,-4.53812 17.5049,0.46818 3.33772,3.55283 3.4272,3.13637 0.37361,-1.73877 z m 37.13695,3.25 c 0.33992,-0.55 0.029,-1.03162 -0.69099,-1.07028 -0.71996,-0.0387 -0.40901,-0.45703 0.69099,-0.92972 1.76334,-0.75773 1.66985,-0.86774 -0.79006,-0.92971 -1.89885,-0.0478 -4.00548,-1.34797 -6.59516,-4.07029 -4.33751,-4.55966 -7.33162,-5.03766 -15.68328,-2.50379 -7.24483,2.19807 -8.37459,3.09371 -6.04816,4.79484 1.59194,1.16405 2.67948,1.1457 7.23427,-0.12206 6.30837,-1.75584 11.57065,-0.66692 16.11843,3.33537 2.97448,2.61771 4.7808,3.08642 5.76396,1.49564 z m -82.54069,-7.92398 c 1.72789,-3.22859 15.73372,-11.90084 22.69006,-14.04944 4.51351,-1.39408 9.34736,-2.02658 15.48808,-2.02658 5.34969,0 10.25705,-0.55582 12.24652,-1.38707 4.54055,-1.89716 10.96122,-2.89428 18.11603,-2.81337 5.98513,0.0677 5.99439,0.0633 3.7385,-1.78545 -5.05751,-4.14465 -14.32835,-4.38147 -23.38498,-0.59737 -2.7937,1.16728 -5.88024,1.37767 -13.48811,0.9194 -15.74491,-0.94841 -25.97233,2.53912 -36.60079,12.4808 -5.22302,4.88553 -5.50686,5.67836 -3.20792,8.96056 1.91081,2.72807 3.06064,2.80603 4.40261,0.29852 z m 236.54069,-9.07602 c 8.53917,-4.71372 12.50727,-5.08363 16.09091,-1.5 1.375,1.375 2.70454,2.5 2.95454,2.5 0.25,0 0.45455,-1.82234 0.45455,-4.04966 0,-12.7626 -11.97992,-16.21119 -25.12127,-7.2315 -7.88389,5.38717 -14.70719,6.1582 -19.47565,2.20073 -2.20301,-1.82833 -1.6474,0.25662 1.17538,4.41071 5.92993,8.72669 12.84019,9.78676 23.92154,3.66972 z m -138.5,-0.51469 c 0,-1.75894 -0.97675,-3.11759 -3.25,-4.52074 -4.70533,-2.90431 -7.37633,-3.36199 -10.95932,-1.87786 l -3.1705,1.31326 4.43991,1.13831 c 4.93612,1.26552 10.48116,3.91045 11.43551,5.45461 1.01855,1.64805 1.5044,1.16117 1.5044,-1.50758 z m -26,-2.48531 c 1.21296,-0.78387 1.06943,-0.9723 -0.75,-0.98468 -1.2375,-0.008 -2.25,0.43468 -2.25,0.98468 0,1.25293 1.06124,1.25293 3,0 z m 40.59245,-16.46358 2.82107,-1.46359 -5.45676,-2.3917 c -28.92948,-12.67979 -58.54848,-12.78944 -73.45676,-0.27195 -2.87936,2.4176 -2.90837,2.52035 -0.72149,2.55486 1.25319,0.0198 4.87416,-1.27431 8.0466,-2.87575 8.25258,-4.16589 15.70524,-5.32238 26.1257,-4.05412 9.53275,1.16022 23.94045,4.73381 31.54919,7.82526 6.07995,2.4703 7.47207,2.55526 11.09245,0.67699 z m 86.19365,-9.73678 c -6.37687,-11.65089 -14.00955,-13.77604 -26.21741,-7.29964 -8.73534,4.6342 -13.59804,4.71097 -19.66866,0.31052 -11.95126,-8.66318 -26.56707,-9.0731 -42.15003,-1.18215 -2.6125,1.32293 -4.75,2.82736 -4.75,3.34317 0,2.21906 6.54444,2.12741 11.5,-0.16105 4.11179,-1.89882 6.68758,-2.30912 14.5,-2.30974 10.58905,-8.3e-4 15.49199,1.69789 27.56971,9.55209 3.33835,2.17094 6.88171,3.94716 7.87414,3.94716 0.99243,0 5.36425,-1.6073 9.71516,-3.57179 6.19627,-2.7977 8.60753,-3.42143 11.12586,-2.87796 4.11736,0.88853 9.9696,3.84652 11.67452,5.90083 2.74987,3.31339 2.1488,0.4182 -1.17329,-5.65144 z M 463.40029,297.34372 c 10.87791,-1.67951 13.84824,-3.7994 20.71283,-14.78255 5.79131,-9.26594 13.48378,-11.03214 26.2069,-6.01716 6.98258,2.75228 11.42644,2.46349 16.77183,-1.08994 5.52503,-3.67284 7.94028,-3.76115 11.07568,-0.40498 2.92854,3.13474 7.08411,5.40498 9.89355,5.40498 1.13771,0 4.5984,-1.35 7.69043,-3 9.17696,-4.8971 13.06602,-3.68143 14.79405,4.62442 0.35752,1.71843 1.73621,4.14484 3.06377,5.39201 2.19648,2.06349 2.97939,2.19948 8.69813,1.5109 6.00064,-0.72253 9.99425,-0.85654 16.02105,-0.53762 4.08957,0.21641 4.97117,-0.74288 3.18624,-3.46703 -2.26707,-3.45999 -6.30937,-4.52817 -13.36291,-3.53116 -10.83859,1.53203 -15.25298,-1.06883 -16.64799,-9.80863 -0.379,-2.37441 -1.33388,-4.96191 -2.12197,-5.75 -2.33426,-2.33425 -8.29924,-1.69657 -14.29003,1.52766 -8.75828,4.7137 -14.06131,3.99046 -17.85226,-2.43471 -2.73547,-4.63629 -5.14064,-4.54483 -12.53271,0.47655 -7.0471,4.78704 -9.76712,4.9848 -19.24597,1.3993 -8.0224,-3.03457 -14.57228,-2.81729 -19.43419,0.64469 -1.64695,1.17273 -5.26187,5.49241 -8.03317,9.59929 -5.92766,8.78442 -8.80393,10.75935 -18.89203,12.97186 -7.84225,1.71994 -13.00967,3.82509 -13.00967,5.29998 0,0.47637 2.1375,1.31162 4.75,1.8561 2.6125,0.54448 4.8888,1.04316 5.05844,1.10818 0.16965,0.065 3.54465,-0.38144 7.5,-0.99214 z m 194.19156,232.70784 c -7.28098,-3.2139 -9.14686,-10.22533 -4.11801,-15.47432 1.75447,-1.83126 2.38236,-3.15077 1.7,-3.57249 -1.5989,-0.98817 -1.31327,-5.63764 0.4672,-7.60503 1.41018,-1.55823 1.31229,-2.05883 -1.09085,-5.57874 -5.08188,-7.44349 -1.20808,-17.01084 7.87832,-19.45756 2.16255,-0.58231 5.10898,-0.7322 6.54762,-0.33309 1.43865,0.39912 5.98614,0.99524 10.10554,1.32471 6.14685,0.49162 7.55153,0.92271 7.83395,2.40421 0.23943,1.25597 -0.59532,2.15978 -2.74373,2.97071 -2.72586,1.0289 -3.02485,1.52067 -2.55042,4.19483 0.66433,3.74448 -1.95661,9.09984 -5.8524,11.9582 -1.99164,1.46127 -4.42953,2.09456 -8.27973,2.15081 -3.00132,0.0439 -6.00607,0.63664 -6.67722,1.31732 -2.06547,2.09479 1.9513,4.10224 8.22086,4.10853 11.55886,0.0116 17.79593,4.06502 16.6949,10.84988 -1.3007,8.01526 -7.59341,12.16739 -18.3462,12.1054 -3.73441,-0.0215 -8.13983,-0.63504 -9.78983,-1.36337 z m 18.5,-6.46116 c 1.43856,-1.06578 2.5,-2.85524 2.5,-4.21471 0,-3.31985 -3.70851,-4.88924 -11.59502,-4.90687 -5.24278,-0.0117 -6.95082,0.37842 -8.33035,1.90279 -6.39655,7.06811 9.01251,13.45161 17.42537,7.21879 z m -4.39971,-26.90164 c 1.50197,-1.00289 3.39971,-4.75091 3.39971,-6.7144 0,-2.85286 -4.62727,-6.52159 -8.20455,-6.50497 -3.85561,0.0179 -5.07971,0.69371 -6.64575,3.66894 -2.85103,5.41651 0.29499,10.32618 6.6003,10.30043 2.0625,-0.008 4.24513,-0.34592 4.85029,-0.75 z m -55.2472,19.83897 c -1.87489,-1.14324 -3.61269,-3.33022 -4.29925,-5.41051 -2.37089,-7.18386 3.21535,-13.45505 13.49267,-15.14705 9.78999,-1.61178 9.45349,-1.43591 9.45349,-4.94056 0,-6.45788 -6.5737,-8.76979 -14.38984,-5.06078 -2.91581,1.38363 -3.91479,1.47732 -5.11668,0.47983 -2.69947,-2.24036 -1.57394,-4.0684 4.10598,-6.66875 9.3348,-4.27362 17.66788,-2.06217 21.64898,5.74525 1.42211,2.78893 1.74874,6.08857 1.75,17.67891 l 0.002,14.25 h -2.52144 c -1.72096,0 -2.88406,-0.79585 -3.66365,-2.50688 -1.01895,-2.23633 -1.31737,-2.34837 -2.76516,-1.03814 -2.38281,2.15641 -8.57375,4.54558 -11.76763,4.54129 -1.53017,-0.002 -4.19823,-0.86723 -5.92903,-1.92261 z m 15.96298,-6.5451 c 2.21234,-1.44958 2.68393,-2.50245 2.68393,-5.99218 v -4.2336 l -5.75,0.8999 c -7.35961,1.15181 -10.25,3.01869 -10.25,6.62038 0,1.52732 0.5625,3.35494 1.25,4.06138 1.65581,1.70144 8.58907,0.92234 12.06607,-1.35588 z m 162.01266,7.01368 c -3.82502,-1.66386 -5.32873,-4.20685 -5.32873,-9.01168 0,-7.14613 4.41185,-10.32474 17.49217,-12.60258 6.09763,-1.06185 6.62972,-1.34898 6.10736,-3.29558 -0.31472,-1.17282 -0.57837,-2.66275 -0.58588,-3.31097 -0.0491,-4.23777 -8.1145,-5.67158 -14.57462,-2.59096 -3.49154,1.665 -3.68168,1.65819 -5.02589,-0.18014 -1.96345,-2.68518 0.39438,-5.07223 7.09714,-7.18509 6.08931,-1.91948 11.00569,-1.32041 15.00945,1.82895 4.57854,3.60148 5.48027,7.34868 5.48027,22.7737 v 14.03211 h -2.37803 c -1.30792,0 -2.99542,-0.90521 -3.75,-2.01158 -1.36371,-1.99947 -1.40161,-1.99646 -6.29145,0.5 -5.52506,2.82076 -8.62338,3.06715 -13.25179,1.05382 z m 15.20937,-6.97524 c 1.98997,-1.30388 2.4619,-2.44513 2.4619,-5.95353 v -4.34044 l -5.22771,0.95017 c -5.53679,1.00634 -8.79943,2.36804 -10.00698,4.17651 -1.32411,1.98304 -0.80051,5.47931 0.98469,6.57517 2.28194,1.40079 8.66501,0.63845 11.7881,-1.40788 z m 30.8301,7.34485 c -4.17466,-1.21005 -10.0891,-7.90719 -10.92687,-12.37289 -0.36943,-1.96921 -0.48947,-6.44204 -0.26676,-9.93962 0.323,-5.07264 0.9819,-7.1157 3.25671,-10.09813 3.77131,-4.94445 10.48378,-7.92176 16.11863,-7.14942 5.86019,0.80323 11.45009,3.62683 11.45009,5.78374 0,3.04973 -2.84034,3.73402 -6.8458,1.64926 -9.72197,-5.06007 -18.46004,3.32446 -16.57375,15.90318 0.98924,6.59669 4.96455,10.76658 10.26417,10.76658 2.58194,0 5.10887,-0.78338 6.9733,-2.16181 2.68586,-1.98574 3.10256,-2.03673 5.11649,-0.62612 2.12685,1.4897 2.1382,1.59676 0.37904,3.57576 -4.18802,4.71141 -12.08532,6.65788 -18.94525,4.66947 z m 37.8882,-0.029 c -9.98329,-2.88315 -15.44365,-18.34637 -10.37567,-29.38288 2.1848,-4.75781 4.41489,-6.88991 9.37375,-8.96186 4.99336,-2.08636 9.29831,-1.93303 14.34696,0.51097 4.98474,2.41307 7.18221,5.40948 8.22559,11.21616 1.41648,7.88316 1.66656,7.73473 -13.03203,7.73473 h -13.05834 l 0.54177,4.03922 c 0.65217,4.86229 2.13314,6.81563 6.57516,8.67239 3.61557,1.51131 7.68974,1.04791 12.52596,-1.42472 2.64529,-1.35246 3.04149,-1.31028 4.87032,0.51855 1.98771,1.9877 1.98672,1.99344 -0.63863,3.71363 -6.19994,4.06236 -12.90249,5.22724 -19.35484,3.36381 z m 14.68758,-27.13288 c -2.59163,-9.19112 -15.56165,-9.02273 -18.79204,0.24399 l -1.0479,3.00601 h 10.37817 10.37818 z m -345.94398,0.80902 c 0,-14.54254 0.3375,-26.63896 0.75,-26.88093 0.4125,-0.24197 2.20316,-0.21882 3.97924,0.0514 3.03597,0.46197 3.77598,1.51718 12.36438,17.63093 5.02433,9.42675 9.42117,17.44388 9.77076,17.81584 0.34959,0.37196 4.91062,-7.35907 10.13562,-17.18007 9.80443,-18.42858 10.85777,-19.6307 16.01864,-18.2811 1.70648,0.44626 1.80908,2.10176 1.65048,26.63036 l -0.16912,26.15451 h -3.5 -3.5 v -19.6682 c 0,-10.81751 -0.18942,-19.47809 -0.42093,-19.24574 -0.2315,0.23235 -4.1202,7.27418 -8.64155,15.6485 -8.24542,15.27197 -9.97885,17.55525 -12.5516,16.53313 -0.76226,-0.30283 -5.21092,-7.76349 -9.88592,-16.57923 l -8.5,-16.02863 -0.27071,19.92009 -0.2707,19.92008 h -3.4793 -3.47929 z m 149.6236,5.24369 c 14.08138,-35.59544 12.35841,-32.30271 16.90285,-32.30271 h 3.9275 l 3.2454,8 c 4.816,11.87156 17.30065,44.3053 17.30065,44.94518 0,1.12247 -6.78771,0.51414 -7.75671,-0.69518 -0.55088,-0.6875 -2.01627,-4.0625 -3.25644,-7.5 l -2.25483,-6.25 h -11.2495 -11.2495 l -2.92703,7.25 c -2.91462,7.21926 -2.94438,7.25129 -7.01834,7.55271 l -4.0913,0.3027 z m 25.3764,-0.12746 c 0,-1.23272 -7.74404,-22.74005 -8.44275,-23.44783 -0.35139,-0.35595 -8.55725,22.18455 -8.55725,23.50574 0,0.58917 3.54757,1.0811 8.5,1.17867 6.71017,0.13219 8.5,-0.1282 8.5,-1.23658 z m 23.23442,-6.92525 0.26558,-28.25 3.25,-0.31335 3.25,-0.31336 v 28.56336 28.56335 h -3.51558 -3.51557 z m 21.76558,11.81643 v -16.43358 l -2.75,-0.31642 c -2.15997,-0.24853 -2.81789,-0.90646 -3.06643,-3.06643 -0.26863,-2.33471 0.0518,-2.75 2.1222,-2.75 2.08217,0 2.53455,-0.6 3.09502,-4.10497 1.39917,-8.7499 5.73572,-12.89503 13.49053,-12.89503 4.40218,0 5.55873,1.00667 4.60584,4.00895 -0.4262,1.34284 -1.51426,1.99105 -3.34204,1.99105 -4.55841,0 -7.15512,2.56101 -7.15512,7.05671 v 3.94329 h 5 c 4.88889,0 5,0.0667 5,3 0,2.93334 -0.11111,3 -5,3 h -5 v 16.5 16.5 h -3.5 -3.5 z"
         id="path9" />
      <path
         style="fill:#081d2c"
         d="m 587.83571,729.33061 c -4.28711,-2.39919 -1.98798,-4.40456 14.50614,-12.65271 26.78814,-13.39585 52.63055,-32.00741 57.97569,-41.75378 6.28423,-11.45872 12.30635,-35.21546 13.42742,-52.97005 l 0.56828,-9 -4.57617,-2.37064 -4.57618,-2.37065 -7.95544,3.37065 c -7.80231,3.30576 -7.96722,3.44884 -8.56766,7.433 -0.76339,5.06548 -5.44097,10.90862 -10.07365,12.58382 -3.39156,1.22641 -3.4727,1.38462 -3.48966,6.80471 -0.039,12.46621 -5.08383,27.41552 -13.54851,40.14821 -13.57871,20.42529 -37.09421,36.88641 -67.56961,47.29949 l -10.53307,3.59902 -15.41572,-1.56785 c -41.53522,-4.22432 -70.92241,-15.29555 -99.88215,-37.62926 -9.56332,-7.37522 -10.35098,-8.36505 -13.68504,-17.1976 -2.63311,-6.97559 -5.02549,-8.32657 -19.38312,-10.94563 -13.92953,-2.54098 -18.19157,-4.23249 -23.39328,-9.28433 -5.93596,-5.76493 -6.87343,-8.5422 -7.55202,-22.37294 -0.86481,-17.62596 -3.40453,-21.48481 -15.83932,-24.06626 -2.95341,-0.61313 -6.84798,-1.73238 -8.65459,-2.48723 -11.52255,-4.81443 -17.27573,-18.1762 -13.94387,-32.38468 l 1.53873,-6.56183 -2.78166,-2 c -5.21138,-3.74695 -8.3394,-7.34227 -8.3394,-9.58521 0,-1.23149 1.15642,-4.21236 2.56983,-6.62416 l 2.56984,-4.3851 -3.09954,-5.20276 c -7.78968,-13.07547 -9.37006,-17.59022 -9.84165,-28.115 -0.79703,-17.78828 3.05359,-28.13347 14.13798,-37.9835 l 6.86922,-6.10427 -0.51825,-7.5 c -0.33909,-4.90714 -1.63382,-10.5333 -3.74509,-16.27403 l -3.22684,-8.77404 1.78341,-4.22596 c 1.23445,-2.92513 1.98325,-8.22762 2.43262,-17.22597 0.77242,-15.46743 2.35788,-19.21319 10.84436,-25.62055 4.05946,-3.06492 5.18923,-4.46079 4.62733,-5.71719 -0.40888,-0.91424 -0.93076,-3.49401 -1.15974,-5.73282 -0.51893,-5.07373 2.72377,-9.36567 9.77612,-12.93937 7.47916,-3.78997 7.98663,-4.60534 7.32609,-11.77098 -0.82147,-8.91146 0.90852,-14.31388 6.21893,-19.4205 5.07197,-4.87733 11.87085,-7.29859 20.49443,-7.29859 3.34005,0 6.12271,-0.51702 6.72755,-1.25 0.56733,-0.6875 2.01086,-4.175 3.20785,-7.75 3.50382,-10.46467 8.96281,-16.02076 15.70589,-15.98525 2.81945,0.0148 4.81708,0.91435 9.68111,4.35926 l 2.646,1.874 4.94343,-4.624 c 2.71889,-2.5432 5.87646,-4.62401 7.01683,-4.62401 1.14036,0 3.41238,-1.52502 5.04892,-3.38894 3.73888,-4.25835 8.07029,-6.32583 17.23923,-8.22868 3.97328,-0.82458 8.21044,-2.14116 9.41593,-2.92572 1.20548,-0.78457 4.19582,-4.5244 6.64519,-8.31074 7.05313,-10.90302 12.72623,-14.35316 23.66302,-14.39085 4.82848,-0.0166 8.11079,0.65962 12.76385,2.62978 6.92159,2.93067 7.07545,2.90091 15.13403,-2.92736 2.38255,-1.72316 4.71319,-2.45749 7.79966,-2.45749 4.18749,0 10.27715,2.22696 10.32469,3.77569 0.0122,0.39837 0.82129,1.76283 1.7979,3.03212 l 1.77567,2.3078 7.42389,-3.5578 c 8.08305,-3.8737 12.93862,-4.43771 18.43464,-2.14133 4.10054,1.71331 6.26344,4.81053 7.85079,11.24212 l 1.19488,4.8414 h 10.16701 c 11.68501,0 14.12537,1.12068 18.15791,8.33859 2.15428,3.85597 2.6343,4.16141 6.5399,4.16141 6.02199,0 15.41631,2.65929 20.49642,5.80201 9.26856,5.73382 8.31961,5.63565 16.18572,1.67435 11.62416,-5.85384 20.20747,-5.69665 28.79953,0.5274 3.44087,2.49256 5.18837,5.16122 10.17065,15.53193 7.18315,14.95187 8.80419,16.27302 15.34605,12.50707 11.94802,-6.8781 14.91108,-8.04276 20.462,-8.04276 15.33167,0 24.0617,13.25831 18.2722,27.75 -1.15356,2.8875 -2.99201,7.49065 -4.08542,10.22923 -3.09226,7.74488 -1.10694,10.40243 10.48803,14.03921 6.48404,2.03373 13.02533,5.66074 16.53032,9.16574 6.17833,6.17832 10.2531,19.21993 6.71968,21.50681 -0.6875,0.44496 -22.71121,1.03401 -48.94157,1.30901 l -47.69156,0.5 7.34981,3.88363 7.34982,3.88362 4.40747,-2.13362 c 5.62399,-2.72253 9.25579,-2.69389 14.75559,0.11637 5.28224,2.6991 8.09897,6.29626 8.92906,11.40303 l 0.61484,3.78258 10.19981,2.47519 10.19982,2.47519 3.55295,-3.65835 c 10.63206,-10.94748 28.52396,-3.80008 28.52396,11.39467 0,5.53631 -3.85971,12.10871 -8.36703,14.24757 -3.74127,1.77535 -11.14207,2.14878 -14.81787,0.74768 -3.84821,-1.46681 -7.85713,-6.24599 -9.08252,-10.82759 -1.00436,-3.75518 -1.62505,-4.44918 -4.69498,-5.24946 -1.94568,-0.5072 -6.57038,-1.71666 -10.27712,-2.68768 l -6.73951,-1.76549 -3.26049,3.145 c -5.87815,5.66994 -12.16041,6.70475 -19.40705,3.19671 -5.7721,-2.79422 -8.52409,-7.445 -8.70855,-14.71716 l -0.14488,-5.71189 -7,-3.73439 c -3.85,-2.05391 -11.275,-5.16654 -16.5,-6.91694 -8.52261,-2.85512 -11.00695,-3.22777 -24.14712,-3.62209 -31.96232,-0.95915 -55.12752,6.82558 -74.38208,24.99632 -13.47245,12.71411 -23.93223,29.99233 -28.6203,47.2771 -2.77942,10.24768 -3.09236,33.06168 -0.6055,44.14372 6.83547,30.46053 29.83828,56.665 59.64532,67.94707 15.67733,5.93392 21.47777,8.8882 26.11819,13.30253 3.61501,3.43888 4.87203,4.07219 7.1079,3.58112 4.10382,-0.90135 10.13275,1.13243 13.36831,4.50962 1.5892,1.65877 3.47175,3.01594 4.18343,3.01594 0.71169,0 4.14729,-1.40703 7.63468,-3.12673 l 6.34069,-3.12674 -0.43343,-5.22661 c -0.31642,-3.81557 0.11584,-6.46831 1.60111,-9.82601 l 2.03454,-4.59941 -4.92091,-6.50037 -4.9209,-6.50036 -4.75197,0.52196 c -10.33986,1.13573 -18.70283,-6.97067 -17.95812,-17.4072 0.60641,-8.49828 6.07073,-14.15279 14.45533,-14.95845 12.83104,-1.2329 21.87659,11.62864 16.29196,23.16496 l -2.17445,4.49181 5.17434,6.45702 c 4.95169,6.17919 5.29907,6.41354 8.07335,5.44642 1.59447,-0.55583 4.98508,-0.8447 7.53469,-0.64192 4.54997,0.36188 4.70434,0.27592 8.35012,-4.64984 2.04294,-2.76019 8.94652,-12.10603 15.34128,-20.76853 l 11.62683,-15.75 h 38.44493 c 43.90065,0 42.25149,-0.317 41.61905,8 -0.32512,4.27558 -11.59511,37.01573 -16.53147,48.02514 -21.0484,46.94361 -44.23663,76.59679 -76.9998,98.46761 -29.50763,19.69762 -66.72354,33.3941 -111.00614,40.85334 -1.65337,0.2785 -3.79087,0.0672 -4.75,-0.46955 z m -71.24386,-11.83059 c -25.46992,-9.20951 -47.76269,-22.47649 -67.43061,-40.12963 -21.4932,-19.29143 -37.62082,-42.51659 -51.6749,-74.41632 -5.81727,-13.20393 -11.05926,-19.11316 -20.92211,-23.58519 -3.55981,-1.61409 -6.47238,-3.56843 -6.47238,-4.34297 0,-5.40466 3.98257,-5.92321 11.91422,-1.55128 2.97783,1.64138 5.54621,2.85235 5.7075,2.69105 0.703,-0.703 -5.52599,-16.77101 -7.68875,-19.83357 -1.31205,-1.85792 -6.70981,-8.10304 -11.99503,-13.87804 -11.79329,-12.88619 -12.50633,-14.0765 -10.16467,-16.96832 0.9987,-1.23335 2.38164,-1.90765 3.23548,-1.57757 0.82019,0.31707 4.6287,4.14465 8.46336,8.50574 3.83467,4.36109 7.10976,7.79162 7.27798,7.62339 0.16822,-0.16822 -0.19282,-1.60577 -0.80231,-3.19455 -4.48101,-11.68065 -17.94778,-60.89199 -17.94778,-65.58617 0,-1.04789 -0.73264,-1.80485 -1.75,-1.80809 -4.32655,-0.0138 -9.3964,-2.22163 -10.45954,-4.55496 -1.75243,-3.84616 -0.29296,-4.83112 -21.40032,14.44262 -5.53564,5.05476 -8.53884,13.00215 -9.15095,24.21619 -0.58211,10.66454 1.00596,16.60404 7.19284,26.90172 5.79364,9.64319 6.27202,11.91417 3.65047,17.32959 -1.14538,2.36602 -2.06543,4.72229 -2.04455,5.23614 0.0209,0.51385 1.83391,2.17678 4.02898,3.69541 5.64939,3.90843 6.51198,6.73764 4.49371,14.73886 -1.31319,5.20604 -1.4317,7.57737 -0.59529,11.91194 1.86054,9.64199 5.25729,12.43198 20.09747,16.50743 13.99038,3.84208 18.93718,11.85164 18.93718,30.66197 0,16.00436 5.50261,21.243 25.69102,24.45858 16.00808,2.54975 21.81933,6.52805 24.87133,17.02659 0.86876,2.98842 1.90461,5.43349 2.30189,5.43349 0.39727,0 3.40284,2.30304 6.67904,5.11787 12.93146,11.11039 35.17329,23.5156 52.50358,29.28347 8.9522,2.97948 29.99613,7.47094 34.95314,7.46015 3.45138,-0.008 3.43055,-0.0327 -1.5,-1.81554 z m 47.44257,-3.91518 c 16.93473,-7.30096 24.67935,-14.15886 28.9848,-25.66619 2.81297,-7.51834 2.61051,-12.05846 -0.93582,-20.98584 -2.68731,-6.76491 -3.03423,-8.87588 -3.25,-19.77603 -0.21849,-11.03756 -0.4993,-12.70222 -2.94098,-17.43417 -2.97706,-5.76952 -16.03754,-23.36414 -20.20093,-27.21397 -2.54025,-2.34894 -2.87299,-2.39826 -8.43232,-1.25 -3.18324,0.65749 -8.51267,1.19543 -11.84316,1.19543 -12.41468,0 -27.12072,-10.87039 -35.86884,-26.5135 -3.87635,-6.93156 -6.02595,-8.90305 -10.95532,-10.04764 -5.07422,-1.17822 -10.49707,-4.69804 -12.68013,-8.23031 -1.81624,-2.93873 -1.99631,-4.30575 -1.41387,-10.73325 0.75175,-8.29582 0.51898,-8.62925 -6.906,-9.89268 -12.84437,-2.18558 -18.30975,-6.29717 -23.83012,-17.92732 -5.21266,-10.98188 -7.75447,-12.13311 -20.16988,-9.13529 -17.33196,4.18496 -32.81351,-0.75249 -40.99155,-13.07324 -1.98845,-2.99572 -4.15381,-5.48675 -4.81191,-5.53563 -0.6581,-0.0489 -3.27602,-0.0186 -5.8176,0.0673 -2.54158,0.0859 -6.30375,-0.54692 -8.36037,-1.40623 l -3.73931,-1.56238 0.64318,3.42848 c 0.74506,3.97146 14.96874,51.54318 22.60969,75.61904 9.84855,31.03181 18.60828,50.17111 32.01727,69.95517 23.70561,34.97602 51.6015,56.46574 94.06097,72.46023 7.89033,2.97229 14.52486,5.22535 14.74341,5.00681 0.21854,-0.21855 -1.12165,-1.64347 -2.97822,-3.1665 -11.62387,-9.53561 -27.75981,-27.09858 -40.71252,-44.31306 -15.71564,-20.88646 -35.53423,-45.79037 -40.45704,-50.83804 -5.80211,-5.94926 -15.22505,-13.02527 -21.00385,-15.77251 -3.31297,-1.57499 -3.75981,-2.19282 -3.5,-4.83928 0.44282,-4.5105 2.75888,-4.29348 12.03643,1.12781 12.10325,7.07247 21.13981,16.77917 48.2443,51.82202 26.98135,34.88367 44.8241,54.03062 58.97986,63.29097 4.37951,2.86497 8.53477,5.20903 9.23391,5.20903 0.69913,0 5.3098,-1.74115 10.24592,-3.86923 z M 432.83011,590.3929 c -8.94392,-4.75199 -35.54982,-44.40966 -46.92118,-69.93883 -2.08237,-4.675 -3.79309,-9.27166 -3.8016,-10.21481 -0.0177,-1.96508 3.50437,-4.19997 5.0822,-3.22481 0.58099,0.35907 3.65166,6.14396 6.82371,12.8553 9.98101,21.1176 20.97178,38.579 36.56919,58.09872 5.24115,6.55916 9.37509,12.38921 9.18653,12.95567 -0.58043,1.74365 -3.00679,1.55789 -6.93885,-0.53124 z m 200.95365,122.50152 c 39.64153,-11.95032 70.62057,-29.5681 93.33464,-53.07941 15.28729,-15.82387 26.9583,-32.46908 38.42011,-54.79483 9.11842,-17.76121 23.55334,-55.73451 23.55334,-61.96072 0,-1.40898 -2.01861,-1.60539 -16.5,-1.60539 -15.67334,0 -16.5,0.0974 -16.5,1.94347 0,1.08492 1.28364,2.70173 2.90574,3.65993 4.75493,2.80881 7.40731,8.608 6.87468,15.03087 -0.27498,3.31594 -1.24206,6.50885 -2.47067,8.15721 -9.27068,12.43792 -29.30975,6.25849 -29.30975,-9.03823 0,-8.34442 4.29689,-14.53474 11.31099,-16.29516 1.47895,-0.3712 2.68901,-1.30112 2.68901,-2.06649 0,-1.12352 -2.64884,-1.38288 -13.75,-1.34634 l -13.75,0.0453 -13.5,18.54864 c -7.425,10.20175 -13.64556,18.94307 -13.82347,19.42515 -0.17791,0.48208 0.92156,2.50882 2.44326,4.50388 7.54481,9.89175 1.30232,26.68327 -10.82595,29.12048 -2.94803,0.59241 -3.01309,0.82888 -4.35011,15.81134 -0.74242,8.31941 -3.84145,24.07328 -6.06176,30.81479 -0.87216,2.64813 -1.38297,5.01755 -1.13514,5.26538 0.98152,0.98152 31.14419,-32.98634 43.42565,-48.90404 l 6.03659,-7.82387 -1.92057,-3.67613 c -2.45281,-4.69486 -2.01515,-13.04662 0.88916,-16.9676 3.95072,-5.33369 8.25207,-7.42538 14.38773,-6.99657 10.11532,0.70695 16.91147,8.78816 15.47069,18.39599 -1.34489,8.96836 -11.26539,15.76406 -19.5459,13.38924 -2.70526,-0.77586 -3.15223,-0.43835 -7.73359,5.83968 -16.22696,22.23649 -47.86801,55.64269 -69.25659,73.12021 -6.325,5.16842 -16.86753,12.91744 -23.42783,17.22003 -6.56031,4.30259 -11.42394,7.82289 -10.80808,7.82289 0.61586,0 6.43338,-1.60184 12.92782,-3.55965 z m -15.80788,-42.85214 c 5.65905,-9.89076 8.98551,-19.74311 9.76023,-28.90803 l 0.63276,-7.48556 -2.99007,-1.54623 c -4.96125,-2.56556 -9.0757,-8.05686 -9.83611,-13.12765 -0.5632,-3.75563 -0.23601,-5.46963 1.84793,-9.68051 1.39277,-2.81427 2.33111,-5.61711 2.08521,-6.22854 -0.96172,-2.39125 -8.69235,-6.81068 -17.57325,-10.04622 -5.1209,-1.86568 -10.09823,-3.70429 -11.06073,-4.0858 -1.16717,-0.46263 -1.75,-0.22409 -1.75,0.71624 0,0.77544 -1.8,5.13206 -4,9.68138 -2.2,4.54932 -4,8.58763 -4,8.97401 0,0.38639 1.86461,3.16542 4.14358,6.17562 2.27898,3.0102 5.76648,8.84808 7.75,12.97308 3.48243,7.24215 3.60822,7.89538 3.65885,19 0.0463,10.15024 0.36702,12.24885 2.73281,17.88013 3.62354,8.62509 4.24668,14.28883 2.37892,21.6219 l -1.52771,5.99797 6.73516,-7.21805 c 3.70434,-3.96994 8.65992,-10.58212 11.01242,-14.69374 z m 20.66142,-47.04275 c 1.80606,-1.80606 2.45455,-3.53535 2.45455,-6.54546 0,-5.57002 -3.37877,-9 -8.86566,-9 -7.9572,0 -12.09004,9.77158 -6.49798,15.36364 3.57091,3.57091 9.43737,3.65354 12.90909,0.18182 z m 50.1702,-20.93224 c 10.24564,-11.17993 -6.26049,-26.52992 -16.99023,-15.80018 -1.86659,1.86659 -3.06424,4.29414 -3.41734,6.92669 -1.5585,11.61947 12.34917,17.66672 20.40757,8.87349 z m 51.21283,1.92377 c 7.6815,-3.97226 4.24818,-16.53699 -4.51874,-16.53699 -4.44466,0 -8.31895,3.50544 -9.06682,8.20361 -0.50939,3.20002 -0.17533,4.11784 2.45684,6.75 3.39317,3.39318 6.715,3.8658 11.12872,1.58338 z M 583.01376,585.95407 c 0.0115,-0.55 -3.31878,-2.98813 -7.40061,-5.41807 -15.41897,-9.17901 -29.24979,-24.44789 -37.54066,-41.44396 -7.96752,-16.33321 -9.32513,-22.80437 -9.36482,-44.63797 -0.0317,-17.41383 0.12855,-19.0284 2.72857,-27.5 1.5192,-4.95 4.17089,-12.07234 5.89263,-15.82743 3.70068,-8.07113 3.28014,-8.71116 -5.21746,-7.94062 -4.99651,0.45307 -5.96894,0.23877 -7.79092,-1.7169 -1.14501,-1.22902 -2.59789,-4.38579 -3.22864,-7.01505 -2.07767,-8.6607 -6.55242,-11.43277 -16.92819,-10.48687 -8.83018,0.805 -12.54801,-1.10242 -16.04277,-8.23067 -2.9163,-5.94835 -5.40653,-8.20499 -9.10473,-8.25065 -4.61141,-0.0569 -7.06508,3.87022 -7.95912,12.73876 -1.07805,10.6938 -2.8785,14.45636 -10.85909,22.69322 -3.74952,3.86992 -7.78443,8.93499 -8.96647,11.25572 -2.69479,5.29074 -5.13963,14.53803 -5.13963,19.43997 0,3.65507 0.17701,3.83137 7.86078,7.82891 9.83454,5.11649 20.25815,13.82168 27.16767,22.68884 8.46257,10.86024 12.83902,15.06615 22.97155,22.07639 5.225,3.61494 10.79823,7.73672 12.38496,9.1595 5.47354,4.908 11.32662,13.92849 15.71405,24.21776 5.74955,13.48366 11.71028,20.02227 26.04174,28.5664 5.69759,3.39679 11.92224,7.79211 13.83257,9.76737 l 3.47332,3.59139 3.72719,-7.27802 c 2.04995,-4.00291 3.73659,-7.72802 3.74808,-8.27802 z m -31.02065,8.58219 c 1.05559,-0.66833 0.31552,-1.43865 -3,-3.12262 -6.91451,-3.51191 -17.16678,-14.60564 -20.88181,-22.59569 -10.08453,-21.68919 -14.25676,-27.11641 -27.25583,-35.45426 -9.06583,-5.815 -16.86078,-13.19125 -26.78426,-25.34555 -11.35031,-13.90188 -23.30819,-21.51126 -46.47936,-29.57706 -21.27756,-7.40664 -34.72468,-16.14196 -44.0582,-28.62045 -7.19235,-9.61585 -10.38093,-20.51233 -6.85798,-23.43612 2.29553,-1.90512 4.64767,-0.054 6.0394,4.75286 1.62001,5.59536 3.97524,9.98106 8.65558,16.11763 6.96528,9.13245 7.2898,8.90374 7.28112,-5.13149 -0.004,-6.69319 0.20569,-15.56642 0.46628,-19.71829 0.45027,-7.17406 0.28528,-7.93044 -3.323,-15.23416 -4.34175,-8.78837 -9.24398,-12.95372 -17.48379,-14.8557 -10.71389,-2.47306 -19.73775,1.75461 -25.99715,12.17964 -3.95483,6.58676 -5.36512,11.45327 -5.36512,18.51347 0,6.12566 0.66026,7.61096 6.25876,14.07952 3.72074,4.29898 4.0575,5.13529 3.62237,8.99572 -0.30945,2.74551 -1.59581,5.66529 -3.62432,8.22649 -2.87161,3.6257 -3.00685,4.10812 -1.55785,5.55712 1.89694,1.89694 3.65031,1.96555 10.40217,0.40703 7.33745,-1.69369 8.54173,-0.25665 8.54173,10.19268 0,7.26526 0.22614,8.16541 2.66416,10.60455 2.41349,2.41458 3.41061,2.67559 10.59717,2.77394 9.10258,0.12456 9.71396,0.47306 15.32482,8.73543 2.93932,4.32833 5.14902,6.32415 9.14485,8.25969 7.25472,3.51412 11.9359,3.99243 21.269,2.17318 18.97276,-3.69827 23.50484,-1.9436 30.5,11.80854 5.03815,9.90477 8.80952,13.06306 16.97427,14.21489 6.23224,0.87921 12.62397,3.79761 14.01667,6.39989 1.42059,2.65442 1.621,7.14478 0.56702,12.70536 -0.71235,3.75826 -0.52445,4.43813 1.82957,6.61977 1.44291,1.33724 5.26806,3.17337 8.50034,4.08031 6.75042,1.89407 9.5952,4.3698 13.57275,11.81198 8.26658,15.46713 19.80002,24.66 31.03938,24.74031 2.2,0.0157 4.63057,-0.37066 5.40126,-0.85861 z M 756.6373,566.99953 c 5.33013,-5.33013 1.02894,-15.54546 -6.54545,-15.54546 -4.5465,0 -9,4.68535 -9,9.46854 0,5.1338 3.58425,8.53146 9,8.53146 3.0101,0 4.73939,-0.64848 6.54545,-2.45454 z m -102.18069,-7.37337 c 7.06483,-6.33486 1.36893,-17.47031 -8.03394,-15.70632 -3.69361,0.69292 -7.32014,5.22139 -7.32709,9.14938 -0.005,2.58933 3.51845,7.23913 6.38438,8.42632 2.66873,1.1055 6.56353,0.29441 8.97665,-1.86938 z M 439.84374,465.89453 c 1.76674,-11.10413 6.08079,-19.2856 14.82519,-28.11554 8.0126,-8.09099 9.39293,-11.06313 9.4393,-20.32492 0.0517,-10.31949 4.78861,-16.44851 15.48362,-20.03392 5.16545,-1.73168 19.25844,-1.49622 27,0.45111 5.87395,1.47754 6.03761,1.46275 7.79022,-0.70397 0.98462,-1.21727 3.57706,-4.32747 5.76098,-6.91156 l 3.97077,-4.69835 -4.42664,-1.95811 c -5.29179,-2.34081 -7.134,-4.89565 -8.65965,-12.00948 -0.69496,-3.24049 -2.25128,-6.57561 -3.96041,-8.48699 l -2.81556,-3.14873 H 493.3509 c -10.2181,0 -11.16112,-0.17226 -15.06011,-2.75111 -4.31761,-2.85573 -7.05342,-7.16057 -9.27391,-14.59265 -0.71379,-2.38907 -2.51947,-5.65157 -4.01262,-7.25 -2.64071,-2.82689 -2.98372,-2.90639 -12.56362,-2.91181 -5.41684,-0.003 -11.52974,-0.47241 -13.58422,-1.04298 -4.66641,-1.29596 -7.76457,0.10501 -7.76457,3.51108 0,1.31568 1.575,5.41382 3.5,9.10696 1.925,3.69315 3.5,7.14014 3.5,7.65999 0,0.51984 -2.7,5.25104 -6,10.51378 -3.3,5.26274 -6,9.90126 -6,10.30782 0,0.40656 2.74009,-0.11361 6.08909,-1.15594 13.30484,-4.14093 31.91091,-0.51156 31.91091,6.22467 0,3.43364 -3.5473,4.17715 -8.76188,1.83647 -8.99602,-4.03805 -28.77062,-1.51468 -34.71518,4.42988 -5.03506,5.03505 -13.94338,34.714 -15.08656,50.26236 -0.62939,8.56025 0.35404,17.72444 2.69555,25.11888 0.65314,2.06258 2.20233,3.87223 4.20136,4.9077 4.54345,2.35345 22.88452,9.25708 24.69127,9.29386 1.13121,0.023 1.83488,-1.91935 2.72733,-7.5285 z m -97.69578,-10.97588 c 3.35061,-2.11514 7.92615,-7.57324 7.94015,-9.47167 0.002,-0.2789 -1.99489,-2.94356 -4.43766,-5.92146 -6.90746,-8.42068 -7.94382,-16.39742 -3.84201,-29.57145 2.18931,-7.03154 5.42619,-12.24893 10.98722,-17.70979 5.59263,-5.49188 11.26906,-7.79021 19.24041,-7.79021 13.43607,0 23.04228,5.82394 30.61523,18.56104 0.88459,1.48781 1.51916,0.47447 3.84466,-6.13956 4.06234,-11.55386 11.60255,-26.71183 18.08054,-36.34705 l 5.66472,-8.42558 -2.77205,-5.47885 c -3.7806,-7.47223 -4.38405,-15.64196 -1.43168,-19.38281 1.27723,-1.61833 3.57394,-2.98163 5.6927,-3.37912 2.86359,-0.53721 4.19129,-1.6584 6.85307,-5.78718 3.37567,-5.23613 7.53698,-9.57324 10.89058,-11.35066 1.58899,-0.84217 0.89707,-1.33008 -4.44417,-3.13385 -9.29055,-3.13746 -10.88353,-2.89098 -15.27583,2.36362 -3.22131,3.85373 -4.29614,4.5 -7.48392,4.5 -2.68724,0 -4.76825,-0.86209 -7.48334,-3.10009 -6.42106,-5.29278 -10.82059,-2.17834 -14.70967,10.41302 -3.15988,10.23051 -4.15648,11.02331 -14.80346,11.77621 -10.46956,0.74035 -15.5115,2.86264 -19.0005,7.99785 -2.11138,3.10759 -2.26329,4.12891 -1.69758,11.41301 0.78186,10.06743 -0.63727,12.70432 -9.3311,17.33808 -7.41488,3.95209 -8.71705,5.92106 -7.11874,10.764 1.72941,5.24014 0.63886,7.56322 -6.48758,13.81989 -7.63301,6.70141 -8.53247,9.03645 -8.54053,22.17148 -0.004,6.25163 -0.58741,10.7846 -1.86738,14.50489 l -1.86181,5.41144 2.91594,7.30439 c 1.60377,4.01741 3.17927,9.52771 3.5011,12.24511 0.32184,2.7174 0.98142,4.94072 1.46574,4.94072 0.48432,0 2.68795,-1.14093 4.89695,-2.53542 z m 422.14412,-16.51097 c 2.63217,-2.63216 2.96623,-3.54998 2.45684,-6.75 -1.51091,-9.49162 -13.61639,-11.33189 -17.25515,-2.62311 -1.23534,2.95658 -1.23657,3.8795 -0.009,6.81738 2.69753,6.45611 9.6986,7.66449 14.80735,2.55573 z m -215.95023,-5.36985 c 1.5125,-2.38877 2.75,-4.81424 2.75,-5.38994 0,-1.63511 -9.96254,-6.00509 -15.46382,-6.78306 -4.05543,-0.57351 -5.88546,-1.56664 -10,-5.42689 -6.34059,-5.9487 -9.42562,-7.50821 -19.74827,-9.98293 -8.93899,-2.14301 -16.78791,-2.61098 -16.78791,-1.00094 0,0.55 0.43103,1 0.95784,1 0.52682,0 2.17322,2.1375 3.65868,4.75 3.88806,6.83802 4.57058,7.20179 12.29685,6.55405 11.79268,-0.98866 19.09322,4.15982 22.08538,15.57502 l 1.14784,4.37907 5.1767,-0.54742 c 2.84719,-0.30108 6.07671,-0.16579 7.17671,0.30065 3.29723,1.39813 3.88273,1.10082 6.75,-3.42761 z m 160.20162,-5.9991 c 3.84067,-1.60473 5.54838,-4.15824 5.54838,-8.29641 0,-6.13708 -6.46697,-10.5801 -12.03983,-8.27175 -7.78647,3.22526 -8.16938,13.24679 -0.63144,16.52574 3.93019,1.70961 3.14396,1.70493 7.12289,0.0424 z M 570.59185,410.29825 c 17.67314,-12.81534 37.52388,-18.90633 61.99408,-19.02221 6.91466,-0.0328 12.50592,-0.47109 12.50592,-0.98043 0,-0.50667 -0.92677,-2.73783 -2.05949,-4.95815 -2.7047,-5.30164 -2.27278,-8.28733 1.25782,-8.69482 2.25627,-0.26042 3.01228,0.31298 4.61467,3.5 1.05399,2.09629 2.42612,5.38643 3.04918,7.31143 l 1.13285,3.5 13.00248,0.27753 c 7.15137,0.15264 13.00249,-0.10318 13.00249,-0.5685 0,-4.8955 -7.5312,-21.6704 -14.02767,-31.24505 -10.04644,-14.80666 -22.64607,-19.62008 -32.84917,-12.54933 -4.47878,3.1038 -7.19451,3.26899 -9.62316,0.58535 -2.10692,-2.32811 -5.94837,-2.53029 -9.5,-0.5 -1.375,0.78603 -4.76715,1.44508 -7.53811,1.46457 -7.77724,0.0547 -13.22104,3.30222 -17.51385,10.44796 -4.90969,8.17259 -6.43555,9.02427 -14.18358,7.91679 -11.92085,-1.70394 -20.54621,1.47753 -32.87992,12.12779 -7.73362,6.67805 -20.88454,21.43218 -20.88454,23.43055 0,0.61179 0.69427,1.11234 1.54284,1.11234 0.84856,0 3.74947,2.06405 6.44646,4.58676 3.9919,3.73396 6.10129,4.85996 11.3453,6.05612 3.54293,0.80815 8.85452,2.93817 11.80354,4.73338 l 5.36186,3.26403 4.5,-4.08523 c 2.475,-2.24687 6.75,-5.71677 9.5,-7.71088 z m 197.50046,-20.39839 c -2.6e-4,-0.57983 -1.32878,-3.14875 -2.95227,-5.70874 -3.14647,-4.96147 -7.09392,-7.40972 -18.94001,-11.7468 -3.72085,-1.36228 -8.00404,-3.87384 -10.25,-6.01037 -3.4593,-3.29076 -3.85707,-4.17729 -3.84741,-8.57504 0.008,-3.61132 1.05999,-7.14648 3.98923,-13.40484 4.50166,-9.61785 4.8118,-12.15634 2.04048,-16.70145 -4.6923,-7.69562 -13.03219,-8.14497 -23.58331,-1.27064 -9.01786,5.87536 -14.26038,6.39038 -20.29425,1.99369 -4.24667,-3.09442 -4.93243,-4.24301 -10.75976,-18.0216 -4.08007,-9.64725 -12.09335,-15.1055 -19.71792,-13.43086 -1.73107,0.3802 -6.08091,2.24994 -9.66632,4.15497 -8.07626,4.29115 -11.18596,4.06331 -19.70663,-1.44386 -11.85385,-7.66152 -23.61358,-7.89783 -39.01066,-0.78394 -6.52049,3.01265 -9.31191,5.50369 -6.16733,5.50369 1.74296,0 19.50072,8.60044 20.24531,9.80521 0.36154,0.58499 3.01282,1.74838 5.89172,2.5853 6.21028,1.80537 12.35032,7.26694 16.66716,14.82544 l 2.93416,5.13753 5.85939,-0.23913 c 16.08607,-0.65652 29.60522,11.78763 40.82043,37.57448 1.86848,4.29614 3.68184,9.70494 4.02968,12.01953 l 0.63244,4.20836 7.14271,0.29164 c 19.33653,0.78953 74.64359,0.2245 74.64316,-0.76257 z M 537.64517,372.2403 c 2.77932,-2.65619 8.34126,-6.55957 12.35985,-8.67418 7.30636,-3.84466 7.30648,-3.84479 4.97417,-5.4784 -2.77321,-1.94243 -7.18819,-2.08042 -13.40069,-0.41883 -5.70437,1.52568 -8.80708,-0.0529 -12.54498,-6.38259 -3.46528,-5.86803 -6.79405,-7.41346 -12.51691,-5.81116 -2.40716,0.67396 -6.07497,2.71519 -8.1507,4.53606 l -3.77406,3.31067 3.18996,1.143 c 4.31912,1.54759 7.98594,6.64732 9.80721,13.63968 1.74297,6.69168 3.89217,9.25349 8.63224,10.28946 3.85383,0.84227 4.42621,0.53394 11.42391,-6.15371 z m 45.37846,-18.30122 c 4.93162,-8.14581 10.0851,-11.57481 18.74888,-12.47503 3.75064,-0.38971 8.49238,-1.45139 10.53722,-2.35927 4.91146,-2.18064 7.3479,-2.08219 11.46668,0.46336 1.88135,1.16274 3.69238,1.84233 4.02451,1.5102 1.03026,-1.03026 -2.85399,-8.46668 -6.24749,-11.96086 -12.11353,-12.4729 -30.89315,-6.49516 -33.93556,10.80204 -0.95425,5.42526 -3.09253,9.26219 -5.60635,10.06005 -2.07337,0.65806 -4.91967,5.87993 -4.91967,9.02572 0,2.90099 2.29496,0.94091 5.93178,-5.06621 z m -12.59138,3.76499 c 0.25214,-0.4125 0.6162,-2.1 0.80902,-3.75 0.34461,-2.94893 0.27236,-3 -4.24428,-3 -3.90375,0 -5.22027,-0.56403 -8.75288,-3.75 -3.49909,-3.15572 -4.86749,-3.75 -8.63491,-3.75 -4.22504,0 -11.87116,2.27479 -13.9745,4.15753 -0.59385,0.53157 -0.32553,1.48837 0.70692,2.52081 1.42272,1.42273 2.23098,1.4942 5.57316,0.49286 8.01401,-2.40106 15.11038,-0.61332 19.45722,4.90173 1.57702,2.00083 3.1439,2.83244 5.41083,2.87175 1.75504,0.0304 3.39728,-0.28218 3.64942,-0.69468 z m -69.63071,-9.36269 c 5.67386,-6.15646 12.73828,-9.86786 18.79031,-9.87176 2.75,-0.002 6.30015,0.67482 7.88922,1.50354 2.66964,1.39225 3.35367,1.32611 9,-0.87021 3.36093,-1.30733 6.86879,-2.63771 7.79525,-2.95639 1.45285,-0.49975 1.52164,-1.01083 0.50026,-3.71676 -1.03908,-2.75285 -0.94635,-3.31126 0.75666,-4.55653 1.06748,-0.78056 4.10486,-1.4192 6.74974,-1.4192 5.76322,0 6.12086,-1.14953 1.09904,-3.53254 -6.16699,-2.92643 -11.31077,-2.98631 -19.45937,-0.22655 -6.71066,2.27276 -7.93926,2.39493 -14.5235,1.44425 -12.9522,-1.87015 -26.8083,2.91372 -38.71229,13.36557 -4.60978,4.04743 -4.62493,6.85269 -0.0617,11.41594 3.31135,3.31135 3.93707,3.53333 9.95969,3.53333 6.2457,0 6.53292,-0.11561 10.21667,-4.11269 z m 77.66561,-3.74951 c 0.9269,-1.02422 2.11457,-3.3591 2.63927,-5.18862 1.07194,-3.73762 -0.32029,-6.02166 -5.21255,-8.55155 -3.47635,-1.79769 -6.67048,-1.76836 -11.14778,0.10237 -1.9745,0.825 -5.85446,1.5 -8.62212,1.5 -3.85217,0 -5.03212,0.35909 -5.03212,1.53139 0,1.5854 0.50741,1.86122 5.42216,2.94735 1.60718,0.35518 4.327,2.17952 6.04403,4.05408 2.74351,2.99522 3.55401,3.33817 6.68747,2.82968 2.54606,-0.41317 3.96315,-0.12969 4.95596,0.9914 1.80495,2.03817 2.2458,2.01584 4.26568,-0.2161 z M 478.27428,330.02992 c 5.20193,-4.45266 15.93402,-9.99032 22.56757,-11.64465 2.94516,-0.73449 5.25,-1.8759 5.25,-2.59992 0,-1.79129 -7.12588,-5.25091 -12.2468,-5.94583 -3.59785,-0.48823 -5.29549,-0.0231 -11.01757,3.0187 -7.86357,4.18018 -12.83919,4.60399 -18.73563,1.59585 -7.69074,-3.92351 -14.08103,-1.58821 -18.8204,6.87785 l -2.3204,4.14498 10.49299,-0.14081 c 9.23802,-0.12397 10.92237,0.12456 14.08305,2.07796 1.97453,1.22033 4.0502,3.07856 4.61259,4.1294 1.34348,2.51032 1.47013,2.47908 6.1346,-1.51353 z m 109.78235,-5.88296 c 1.59703,-1.81891 4.50828,-4.17124 6.46945,-5.2274 1.96117,-1.05616 3.56577,-2.21738 3.56577,-2.58049 0,-0.99882 -14.51301,-6.56566 -23,-8.82225 -22.64467,-6.02094 -42.17264,-4.19019 -54.52252,5.11149 -2.4286,1.82917 -4.42956,3.66326 -4.44656,4.07576 -0.0621,1.5064 13.02321,0.77346 16.26874,-0.91124 1.76018,-0.91369 6.39666,-1.86862 10.30328,-2.12207 6.17564,-0.40066 7.89856,-0.10378 13.19713,2.27408 3.3518,1.5042 6.86272,3.58413 7.80204,4.62207 1.24315,1.37366 3.09422,1.89164 6.80287,1.90362 3.56694,0.0115 6.29468,0.73303 9.09502,2.40573 2.2,1.31411 4.35124,2.43171 4.78055,2.48355 0.4293,0.0519 2.08721,-1.39394 3.68423,-3.21285 z M 481.51275,305.22299 c 5.25446,-2.63592 6.72989,-2.9294 13.10802,-2.60732 6.00751,0.30336 8.04684,0.89737 12.4253,3.61917 l 5.23818,3.25623 6.03376,-4.02919 c 9.42016,-6.29054 17.90583,-8.51624 32.27384,-8.46508 7.74993,0.0276 14.83337,0.67774 20,1.83569 l 8,1.79297 6.75388,-4.53581 c 3.71463,-2.4947 9.22713,-5.31545 12.25,-6.26832 3.02286,-0.95287 5.49612,-2.13494 5.49612,-2.6268 0,-0.49187 -1.35687,-2.25117 -3.01526,-3.90956 l -3.01526,-3.01526 -9.44567,0.70817 -9.44568,0.70818 -3.03907,-3.03907 c -2.17743,-2.17744 -3.03906,-3.99011 -3.03906,-6.39349 0,-4.48302 -2.34894,-7.58666 -6.30329,-8.3285 -2.4949,-0.46804 -4.9687,0.21676 -10.69305,2.96008 -9.7838,4.68876 -11.37642,4.59864 -16.45319,-0.93101 -5.07661,-5.52947 -7.37353,-5.6968 -13.95621,-1.01669 -6.83003,4.85597 -9.95384,5.2325 -17.40208,2.09758 -13.16826,-5.54244 -21.29381,-2.95784 -29.31389,9.32424 -5.79571,8.87562 -9.13384,11.25025 -18.37829,13.07367 -6.18973,1.22088 -14.5,4.62915 -14.5,5.94683 0,0.41097 3.64635,1.58003 8.103,2.5979 8.60599,1.96556 12.897,4.44951 12.897,7.46572 0,2.13876 4.4859,4.1074 7.5,3.29139 1.1,-0.2978 4.66441,-1.87807 7.9209,-3.51172 z m 177.97456,225.15 c -7.88668,-2.28814 -10.93925,-10.46604 -5.81819,-15.5871 1.84143,-1.84142 2.2697,-2.88485 1.5,-3.65454 -1.73681,-1.73681 -1.2422,-5.51235 1.01828,-7.77282 l 2.09554,-2.09555 -2.76221,-2.88314 c -2.16911,-2.26406 -2.76222,-3.83702 -2.76222,-7.32561 0,-8.543 6.1235,-13.28375 15.75457,-12.19702 2.79332,0.31518 7.89127,0.85584 11.32877,1.20146 5.23205,0.52605 6.25,0.93516 6.25,2.5119 0,1.41241 -0.72656,1.8835 -2.90485,1.8835 -2.82837,0 -2.89021,0.10906 -2.34924,4.14233 0.62923,4.69128 -1.41073,9.49966 -5.03799,11.87503 -1.21436,0.79524 -5.13292,1.67916 -8.70792,1.96427 -6.12844,0.48874 -6.5,0.66129 -6.5,3.01837 0,2.3959 0.33314,2.53121 8,3.2493 4.4,0.41212 9.02394,0.98607 10.27543,1.27544 3.86775,0.89432 6.22457,4.09015 6.22457,8.44047 0,9.61951 -12.8969,15.64054 -25.60454,11.95371 z m 16.98242,-6.24694 c 3.24851,-2.12851 3.64098,-7.05633 0.68786,-8.63679 -1.06384,-0.56935 -5.54947,-1.03519 -9.96806,-1.03519 -7.71564,0 -8.08994,0.10713 -9.451,2.7048 -1.67899,3.20447 -0.58567,6.496 2.7174,8.18097 3.06778,1.56494 12.91166,0.81881 16.0138,-1.21379 z m -3.83243,-28.12652 c 4.16702,-4.16702 2.91024,-10.49374 -2.45616,-12.36448 -6.02806,-2.1014 -11.08929,1.04847 -11.08929,6.90143 0,7.10637 8.48145,10.52705 13.54545,5.46305 z m -124.79261,20.76185 c -0.23982,-0.44402 -0.54328,-12.39481 -0.67436,-26.55731 l -0.23832,-25.75 3.82992,0.0148 3.82992,0.0148 9.90059,18.64575 9.9006,18.64576 2.44717,-4.91058 c 1.34595,-2.70082 5.81843,-11.09808 9.93885,-18.66058 7.36337,-13.51453 7.55007,-13.75 10.90223,-13.75 h 3.41056 v 26.56643 26.56642 l -2.75,-0.31642 -2.75,-0.31643 -0.5,-20.5 -0.5,-20.5 -8.90132,16.70108 c -4.89573,9.1856 -9.61679,16.97563 -10.49125,17.31119 -2.20984,0.848 -3.87086,-1.48124 -11.9762,-16.79417 -3.84809,-7.26995 -7.58933,-14.01493 -8.31388,-14.98885 -1.10472,-1.48493 -1.31735,1.50118 -1.31735,18.5 v 20.27075 l -2.65557,0.30731 c -1.46056,0.16902 -2.85178,-0.056 -3.09159,-0.5 z m 67.28751,-2.11311 c -2.20941,-2.20941 -3.04035,-3.98108 -3.04035,-6.48241 0,-6.66544 6.40446,-11.10383 18.14761,-12.57655 l 5.35239,-0.67125 -0.13133,-3.92669 c -0.24052,-7.19155 -6.51435,-9.54427 -14.53695,-5.45145 -3.62198,1.8478 -4.25864,1.91581 -5.57849,0.59596 -4.90067,-4.90067 12.97095,-10.20284 20.7795,-6.16488 5.15216,2.66429 5.96727,5.72859 5.96727,22.43341 0,8.47277 -0.40127,15.04966 -0.91822,15.04966 -2.27926,0 -4.08178,-1.37204 -4.08178,-3.10698 0,-2.4152 -0.50912,-2.37874 -4.28024,0.30653 -2.04683,1.45747 -5.03732,2.34047 -8.86402,2.61727 -5.36119,0.38779 -5.99292,0.19985 -8.81539,-2.62262 z m 17.06176,-4.47684 c 2.83419,-1.90396 3.4489,-2.98229 3.70538,-6.5 0.27944,-3.83254 0.097,-4.21512 -2,-4.19291 -4.6077,0.0488 -11.35873,2.14563 -13.55749,4.21084 -6.80176,6.38863 3.55752,12.05425 11.85211,6.48207 z m 57.04077,6.44385 c 0.19641,-0.53981 4.85712,-12.4907 10.35712,-26.55752 l 10,-25.57603 4.00873,-0.0138 4.00874,-0.0138 5.44006,14.25 c 2.99204,7.8375 7.37561,19.16382 9.74127,25.1696 2.36566,6.00578 4.3012,11.51828 4.3012,12.25 0,1.42449 -3.73252,1.78794 -5.67477,0.55257 -0.64612,-0.41096 -2.26573,-3.66657 -3.59914,-7.23468 l -2.42437,-6.48749 -11.67271,-0.28192 -11.67272,-0.28192 -1.96142,4.78192 c -3.6372,8.86743 -4.33391,9.76034 -7.88319,10.10327 -1.87981,0.18163 -3.17064,-0.1054 -2.9688,-0.66014 z m 33.85712,-19.66885 c 0,-1.07359 -9.25315,-25.57254 -9.54748,-25.27821 -0.37908,0.37908 -9.45252,24.69606 -9.45252,25.33292 0,0.24911 4.275,0.45293 9.5,0.45293 5.225,0 9.5,-0.22844 9.5,-0.50764 z m 22.76314,19.93745 c -0.36411,-0.3641 -0.69291,-12.98476 -0.73068,-28.04591 l -0.0687,-27.3839 h 3.53392 3.53392 l -0.26581,27.75 -0.26582,27.75 -2.53743,0.29591 c -1.39558,0.16275 -2.83533,-0.002 -3.19943,-0.3661 z m 21.01131,-16.11827 c -0.27064,-16.57798 -0.30571,-16.81597 -2.52445,-17.13109 -3.41366,-0.48481 -3.18706,-5.18045 0.25,-5.18045 2.2196,0 2.50165,-0.42059 2.51474,-3.75 0.0195,-4.96138 1.76606,-8.18567 5.96798,-11.01734 2.36002,-1.59041 4.57195,-2.23322 6.98544,-2.03001 3.0211,0.25435 3.57759,0.69503 3.84826,3.04735 0.29177,2.5358 0.0442,2.75 -3.17857,2.75 -3.84402,0 -6.31886,1.88085 -7.22491,5.49084 -1.22248,4.87076 -0.27683,5.9871 5.34642,6.31142 4.81119,0.27749 5.24064,0.50285 5.24064,2.75 0,2.30683 -0.32376,2.44774 -5.62394,2.44774 h -5.62394 l 0.37394,16.25 0.37394,16.25 -3.22555,0.31154 -3.22554,0.31153 z m 25.89759,14.64513 c -3.21686,-2.53038 -4.35586,-7.76581 -2.51738,-11.57115 1.8891,-3.9101 6.67592,-6.38012 15.10328,-7.79338 7.10447,-1.19142 7.24799,-1.27475 7.55417,-4.38665 0.22885,-2.32589 -0.35928,-3.84356 -2.20454,-5.68882 -3.0219,-3.0219 -6.53344,-3.18745 -12.27876,-0.57888 -3.98961,1.81142 -4.24102,1.8167 -5.77523,0.12142 -1.3368,-1.47715 -1.37881,-1.95937 -0.25211,-2.89444 4.86457,-4.03724 15.43396,-5.38718 20.73126,-2.64784 5.02241,2.59719 5.85679,5.63356 6.02023,21.90815 0.0812,8.08918 -0.0885,14.94383 -0.37727,15.23257 -1.15034,1.15033 -4.67569,-0.90427 -4.67569,-2.72503 0,-2.42324 0.0769,-2.43153 -5.14793,0.55534 -5.56874,3.18349 -12.47443,3.38354 -16.18003,0.46871 z m 17.63652,-5.42319 c 2.26498,-1.48407 2.69144,-2.47983 2.69144,-6.28441 v -4.52091 l -4.47966,0.614 c -9.56442,1.31095 -14.69946,5.45845 -12.33681,9.96425 2.00308,3.82004 8.48249,3.92421 14.12503,0.22707 z m 27.84067,5.77005 c -1.84292,-0.90801 -4.54292,-3.4524 -6,-5.6542 -2.31629,-3.50015 -2.64923,-5.01786 -2.64923,-12.0763 0,-9.55655 2.0514,-13.82855 8.33674,-17.36112 4.77816,-2.68547 12.80161,-2.95188 17.77826,-0.59031 4.33547,2.05732 5.01003,3.18194 3.07137,5.1206 -1.40036,1.40036 -1.88573,1.39108 -5.01945,-0.096 -9.76025,-4.63154 -17.66382,1.1198 -17.66382,12.85376 0,11.93956 7.74511,17.47175 17.49878,12.49904 3.37074,-1.71849 4.1231,-1.80262 5.32977,-0.59596 1.8314,1.8314 0.90261,3.18169 -3.85966,5.61121 -4.7623,2.42955 -12.21857,2.55774 -16.82276,0.28924 z m 37.23933,-0.2083 c -11.98685,-7.30937 -12.24927,-26.88128 -0.46688,-34.82143 4.70097,-3.16798 13.45568,-3.17951 18.07882,-0.0238 4.45511,3.04102 7.12662,8.26295 6.77862,13.25 l -0.27912,4 -13.25,0.27903 c -12.6425,0.26623 -13.25,0.37393 -13.25,2.34887 0,3.52577 3.13377,8.88992 6.08518,10.41616 3.90105,2.01731 8.77956,1.81913 13.4167,-0.54502 3.37074,-1.71849 4.1231,-1.80262 5.32977,-0.59596 1.8314,1.8314 0.90261,3.18169 -3.85966,5.61121 -5.18527,2.64533 -14.31282,2.68508 -18.58343,0.0809 z m 18.28469,-22.68612 c 0.33577,-0.87499 -0.1,-3.08072 -0.9683,-4.90163 -3.3784,-7.08457 -14.42856,-6.64249 -18.02713,0.72122 -1.0022,2.05079 -1.53815,4.18829 -1.19099,4.75 0.3577,0.57877 4.73564,1.0213 10.10357,1.0213 7.73792,0 9.58415,-0.2913 10.08285,-1.59089 z"
         id="path8" />
    </g>
  </g>
</svg>
